<svg xmlns="http://www.w3.org/2000/svg" xmlns:xlink="http://www.w3.org/1999/xlink" version="1.1" x="0px" y="0px" viewBox="0 0 64 80" style="enable-background:new 0 0 64 64;" xml:space="preserve"><style type="text/css">
	.st0{display:none;}
	.st1{display:inline;}
</style><g class="st0"><rect x="-1862.8" y="-1012" class="st1" width="4344.8" height="2289.3"/></g><g><path d="M47.5,4.5C47.5,5.9,46.4,7,45,7H14.6c-1.4,0-2.5,1.1-2.5,2.5v45c0,1.4,1.1,2.5,2.5,2.5h34.8c1.4,0,2.5-1.1,2.5-2.5V23   c0-1.4,1.1-2.5,2.5-2.5s2.5,1.1,2.5,2.5v31.5c0,4.1-3.4,7.5-7.5,7.5H14.6c-4.1,0-7.5-3.4-7.5-7.5v-45c0-4.1,3.4-7.5,7.5-7.5H45   C46.4,2,47.5,3.1,47.5,4.5z M17.5,19.5h12.9c1.4,0,2.5-1.1,2.5-2.5s-1.1-2.5-2.5-2.5H17.5c-1.4,0-2.5,1.1-2.5,2.5   S16.1,19.5,17.5,19.5z M17.5,30.3h12.9c1.4,0,2.5-1.1,2.5-2.5s-1.1-2.5-2.5-2.5H17.5c-1.4,0-2.5,1.1-2.5,2.5S16.1,30.3,17.5,30.3z    M46.9,35.4H17.1c-1.4,0-2.5,1.1-2.5,2.5s1.1,2.5,2.5,2.5h29.8c1.4,0,2.5-1.1,2.5-2.5S48.3,35.4,46.9,35.4z M46.9,45.3H17.1   c-1.4,0-2.5,1.1-2.5,2.5s1.1,2.5,2.5,2.5h29.8c1.4,0,2.5-1.1,2.5-2.5S48.3,45.3,46.9,45.3z M61.2,2.7c-1-1-2.6-1-3.5,0L39.8,20.5   c-1,1-1,2.6,0,3.5c0.5,0.5,1.1,0.7,1.8,0.7c0.6,0,1.3-0.2,1.8-0.7L61.2,6.3C62.2,5.3,62.2,3.7,61.2,2.7z"/></g></svg>