<svg width="27" height="26" viewBox="0 0 27 26" fill="none" xmlns="http://www.w3.org/2000/svg">
<path d="M26.1562 9.1125L25.3125 8.4375V1.6875C25.3125 0.675 24.6375 0 23.625 0C22.6125 0 21.9375 0.675 21.9375 1.6875V2.53125C18.5625 4.05 13.5 6.75 8.4375 6.75H4.21875C1.85625 6.75 0 8.775 0 10.9688C0 12.4875 0.84375 13.8375 2.025 14.5125L3.88125 24.4688C3.88125 24.975 4.3875 25.3125 5.0625 25.3125H5.4L11.475 24.1313C12.15 23.9625 12.4875 23.4563 12.3188 22.95C11.8125 21.9375 10.9688 20.4188 10.2937 19.9125C9.95625 19.7437 9.45 18.3937 9.1125 16.875H10.125V15.3563C14.6812 15.8625 20.25 18.0562 21.9375 19.4062V20.25C21.9375 21.2625 22.6125 21.9375 23.625 21.9375C24.6375 21.9375 25.3125 21.2625 25.3125 20.25V13.5L25.9875 12.9937C26.6625 12.4875 27 11.8125 27 11.1375V10.8C27 10.125 26.6625 9.61875 26.1562 9.1125ZM3.375 8.4375H8.4375V10.125H3.375V8.4375ZM9.45 21.2625C9.61875 21.2625 9.95625 21.7688 10.2937 22.4438L5.56875 23.625L3.88125 15.1875H7.0875C7.425 17.3813 8.1 20.5875 9.45 21.2625ZM21.9375 17.3813C19.2375 16.0312 14.5125 14.0063 10.125 13.5V8.4375C14.5125 7.93125 19.2375 6.075 21.9375 4.55625V17.3813Z" fill="black"/>
</svg>
