<?xml version="1.0" standalone="no"?>
<!DOCTYPE svg PUBLIC "-//W3C//DTD SVG 20010904//EN"
 "http://www.w3.org/TR/2001/REC-SVG-20010904/DTD/svg10.dtd">
<svg version="1.0" xmlns="http://www.w3.org/2000/svg"
 width="700.000000pt" height="700.000000pt" viewBox="0 0 700.000000 700.000000"
 preserveAspectRatio="xMidYMid meet">
<metadata>
Created by potrace 1.14, written by Peter Selinger 2001-2017
</metadata>
<g transform="translate(0.000000,700.000000) scale(0.100000,-0.100000)"
fill="#000000" stroke="none">
<path d="M3370 6529 c-49 -19 -90 -56 -395 -363 -359 -360 -383 -389 -433
-528 -26 -70 -27 -82 -30 -330 l-4 -257 -706 -4 c-515 -3 -721 -7 -757 -16
-27 -7 -90 -32 -140 -56 -200 -96 -333 -279 -365 -500 -8 -58 -10 -553 -8
-1785 3 -1608 5 -1708 22 -1764 58 -192 192 -349 365 -428 133 -61 -20 -58
2582 -58 2342 0 2387 0 2463 20 243 62 429 257 480 503 14 66 16 212 16 1124
0 1160 2 1121 -65 1261 -68 144 -173 249 -318 318 -133 63 -153 64 -913 64
l-684 0 0 898 c0 1002 4 948 -72 1102 -39 82 -52 96 -377 423 -383 385 -390
390 -526 394 -62 2 -93 -2 -135 -18z m460 -1154 l0 -325 -330 0 -330 0 0 325
0 325 330 0 330 0 0 -325z m-1980 -1315 l0 -330 -330 0 -330 0 0 330 0 330
330 0 330 0 0 -330z m1978 -2 l2 -328 -330 0 -330 0 0 330 0 330 328 -2 327
-3 3 -327z m-1978 -1318 l0 -330 -330 0 -330 0 0 330 0 330 330 0 330 0 0
-330z m1978 3 l-3 -328 -327 -3 -328 -2 0 330 0 330 330 0 330 0 -2 -327z
m1972 -3 l0 -330 -330 0 -330 0 0 330 0 330 330 0 330 0 0 -330z m-3950 -1315
l0 -325 -330 0 -330 0 0 325 0 325 330 0 330 0 0 -325z m1980 0 l0 -325 -330
0 -330 0 0 325 0 325 330 0 330 0 0 -325z m1970 0 l0 -325 -330 0 -330 0 0
325 0 325 330 0 330 0 0 -325z"/>
</g>
</svg>
