<?xml version="1.0" encoding="UTF-8"?>
<svg xmlns="http://www.w3.org/2000/svg" xmlns:xlink="http://www.w3.org/1999/xlink" width="390pt" height="389.999986pt" viewBox="0 0 390 389.999986" version="1.2">
<defs>
<clipPath id="clip1">
  <path d="M 33.871094 347.453125 L 76.621094 347.453125 L 76.621094 390 L 33.871094 390 Z M 33.871094 347.453125 "/>
</clipPath>
<clipPath id="clip2">
  <path d="M 72.292969 351 L 105.292969 351 L 105.292969 390 L 72.292969 390 Z M 72.292969 351 "/>
</clipPath>
<clipPath id="clip3">
  <path d="M 0 347.453125 L 39.179688 347.453125 L 39.179688 390 L 0 390 Z M 0 347.453125 "/>
</clipPath>
<clipPath id="clip4">
  <path d="M 105.304688 340.675781 L 159.304688 340.675781 L 159.304688 380 L 105.304688 380 Z M 105.304688 340.675781 "/>
</clipPath>
<clipPath id="clip5">
  <path d="M 105.304688 360 L 159.304688 360 L 159.304688 390 L 105.304688 390 Z M 105.304688 360 "/>
</clipPath>
<clipPath id="clip6">
  <path d="M 155.011719 347.453125 L 199.261719 347.453125 L 199.261719 390 L 155.011719 390 Z M 155.011719 347.453125 "/>
</clipPath>
<clipPath id="clip7">
  <path d="M 195 347.453125 L 237.75 347.453125 L 237.75 390 L 195 390 Z M 195 347.453125 "/>
</clipPath>
<clipPath id="clip8">
  <path d="M 262.3125 340.675781 L 316.3125 340.675781 L 316.3125 380 L 262.3125 380 Z M 262.3125 340.675781 "/>
</clipPath>
<clipPath id="clip9">
  <path d="M 262.3125 360 L 316.3125 360 L 316.3125 390 L 262.3125 390 Z M 262.3125 360 "/>
</clipPath>
<clipPath id="clip10">
  <path d="M 233.605469 349.226562 L 266.605469 349.226562 L 266.605469 390 L 233.605469 390 Z M 233.605469 349.226562 "/>
</clipPath>
<clipPath id="clip11">
  <path d="M 311.773438 347.453125 L 356.023438 347.453125 L 356.023438 390 L 311.773438 390 Z M 311.773438 347.453125 "/>
</clipPath>
<clipPath id="clip12">
  <path d="M 351 347.453125 L 390 347.453125 L 390 390 L 351 390 Z M 351 347.453125 "/>
</clipPath>
</defs>
<g id="surface1">
<g clip-path="url(#clip1)" clip-rule="nonzero">
<path style=" stroke:none;fill-rule:nonzero;fill:rgb(0%,0%,0%);fill-opacity:1;" d="M 62.378906 368.042969 L 62.378906 355.640625 C 62.378906 354.371094 61.878906 353.144531 60.976562 352.257812 L 56.917969 348.15625 C 56.699219 347.933594 56.4375 347.757812 56.152344 347.636719 C 55.863281 347.515625 55.554688 347.453125 55.246094 347.453125 C 54.933594 347.453125 54.625 347.515625 54.339844 347.636719 C 54.050781 347.757812 53.789062 347.933594 53.570312 348.15625 L 49.535156 352.234375 C 48.632812 353.144531 48.136719 354.371094 48.136719 355.640625 L 48.136719 358.449219 L 38.640625 358.449219 C 36.027344 358.449219 33.890625 360.609375 33.890625 363.246094 L 33.890625 387.238281 C 33.890625 389.875 36.027344 392.035156 38.640625 392.035156 L 71.875 392.035156 C 74.484375 392.035156 76.621094 389.875 76.621094 387.238281 L 76.621094 372.84375 C 76.621094 370.203125 74.484375 368.042969 71.875 368.042969 Z M 43.386719 387.238281 L 38.640625 387.238281 L 38.640625 382.4375 L 43.386719 382.4375 Z M 43.386719 377.640625 L 38.640625 377.640625 L 38.640625 372.84375 L 43.386719 372.84375 Z M 43.386719 368.042969 L 38.640625 368.042969 L 38.640625 363.246094 L 43.386719 363.246094 Z M 57.628906 387.238281 L 52.882812 387.238281 L 52.882812 382.4375 L 57.628906 382.4375 Z M 57.628906 377.640625 L 52.882812 377.640625 L 52.882812 372.84375 L 57.628906 372.84375 Z M 57.628906 368.042969 L 52.882812 368.042969 L 52.882812 363.246094 L 57.628906 363.246094 Z M 57.628906 358.449219 L 52.882812 358.449219 L 52.882812 353.648438 L 57.628906 353.648438 Z M 71.875 387.238281 L 67.125 387.238281 L 67.125 382.4375 L 71.875 382.4375 Z M 71.875 377.640625 L 67.125 377.640625 L 67.125 372.84375 L 71.875 372.84375 Z M 71.875 377.640625 "/>
</g>
<g clip-path="url(#clip2)" clip-rule="nonzero">
<path style=" stroke:none;fill-rule:nonzero;fill:rgb(0%,0%,0%);fill-opacity:1;" d="M 102.6875 351.003906 L 74.898438 351.003906 C 73.464844 351.003906 72.292969 352.175781 72.292969 353.617188 L 72.292969 394.566406 L 105.292969 394.566406 L 105.292969 353.617188 C 105.292969 352.175781 104.125 351.003906 102.6875 351.003906 Z M 91.398438 371.042969 L 91.398438 365.816406 L 99.214844 365.816406 L 99.214844 371.042969 Z M 99.214844 374.527344 L 99.214844 379.753906 L 91.398438 379.753906 L 91.398438 374.527344 Z M 91.398438 362.332031 L 91.398438 357.101562 L 99.214844 357.101562 L 99.214844 362.332031 Z M 78.371094 371.042969 L 78.371094 365.816406 L 86.1875 365.816406 L 86.1875 371.042969 Z M 86.1875 374.527344 L 86.1875 379.753906 L 78.371094 379.753906 L 78.371094 374.527344 Z M 78.371094 362.332031 L 78.371094 357.101562 L 86.1875 357.101562 L 86.1875 362.332031 Z M 78.371094 383.238281 L 86.1875 383.238281 L 86.1875 388.46875 L 78.371094 388.46875 Z M 91.398438 383.238281 L 99.214844 383.238281 L 99.214844 392.824219 L 91.398438 392.824219 Z M 91.398438 383.238281 "/>
</g>
<g clip-path="url(#clip3)" clip-rule="nonzero">
<path style=" stroke:none;fill-rule:nonzero;fill:rgb(0%,0%,0%);fill-opacity:1;" d="M 37.136719 390.71875 L 37.136719 373.34375 C 37.136719 373.003906 36.875 372.6875 36.597656 372.496094 L 33.574219 370.40625 C 33.402344 370.289062 33.15625 370.167969 32.949219 370.167969 L 28.023438 370.167969 L 28.023438 351.226562 C 28.023438 350.925781 27.8125 350.644531 27.589844 350.449219 L 24.195312 347.640625 C 24.011719 347.480469 23.734375 347.46875 23.492188 347.46875 L 9.691406 347.46875 C 9.421875 347.46875 9.160156 347.503906 8.96875 347.695312 L 5.675781 350.953125 C 5.484375 351.144531 5.363281 351.367188 5.363281 351.640625 L 5.363281 358.949219 L 0.863281 358.949219 C 0.59375 358.949219 0.335938 359.042969 0.144531 359.230469 L -2.933594 362.292969 C -3.125 362.484375 -3.230469 362.738281 -3.230469 363.011719 L -3.230469 390.769531 C -3.75 390.9375 -4.109375 391.21875 -4.339844 391.46875 C -5.148438 392.355469 -5.074219 393.589844 -5.0625 393.722656 C -5.015625 394.25 -4.578125 394.691406 -4.046875 394.691406 L 38.0625 394.691406 C 38.625 394.691406 39.179688 394.199219 39.179688 393.632812 C 39.179688 392.132812 37.917969 391.175781 37.136719 390.71875 M 13.554688 384.917969 C 13.554688 385.214844 13.3125 385.457031 13.015625 385.457031 L 10.503906 385.457031 C 10.207031 385.457031 9.964844 385.214844 9.964844 384.917969 L 9.964844 380.613281 C 9.964844 380.316406 10.207031 380.078125 10.503906 380.078125 L 13.015625 380.078125 C 13.3125 380.078125 13.554688 380.316406 13.554688 380.613281 Z M 13.554688 377.820312 C 13.554688 378.117188 13.3125 378.359375 13.015625 378.359375 L 10.503906 378.359375 C 10.207031 378.359375 9.964844 378.117188 9.964844 377.820312 L 9.964844 373.515625 C 9.964844 373.21875 10.207031 372.980469 10.503906 372.980469 L 13.015625 372.980469 C 13.3125 372.980469 13.554688 373.21875 13.554688 373.515625 Z M 13.554688 370.722656 C 13.554688 371.019531 13.3125 371.257812 13.015625 371.257812 L 10.503906 371.257812 C 10.207031 371.257812 9.964844 371.019531 9.964844 370.722656 L 9.964844 366.417969 C 9.964844 366.121094 10.207031 365.878906 10.503906 365.878906 L 13.015625 365.878906 C 13.3125 365.878906 13.554688 366.121094 13.554688 366.417969 Z M 13.554688 363.621094 C 13.554688 363.917969 13.3125 364.160156 13.015625 364.160156 L 10.503906 364.160156 C 10.207031 364.160156 9.964844 363.917969 9.964844 363.621094 L 9.964844 359.320312 C 9.964844 359.023438 10.207031 358.78125 10.503906 358.78125 L 13.015625 358.78125 C 13.3125 358.78125 13.554688 359.023438 13.554688 359.320312 Z M 13.554688 356.523438 C 13.554688 356.820312 13.3125 357.0625 13.015625 357.0625 L 10.503906 357.0625 C 10.207031 357.0625 9.964844 356.820312 9.964844 356.523438 L 9.964844 352.222656 C 9.964844 351.925781 10.207031 351.683594 10.503906 351.683594 L 13.015625 351.683594 C 13.3125 351.683594 13.554688 351.925781 13.554688 352.222656 Z M 18.433594 384.917969 C 18.433594 385.214844 18.195312 385.457031 17.898438 385.457031 L 15.382812 385.457031 C 15.085938 385.457031 14.84375 385.214844 14.84375 384.917969 L 14.84375 380.613281 C 14.84375 380.316406 15.085938 380.078125 15.382812 380.078125 L 17.898438 380.078125 C 18.195312 380.078125 18.433594 380.316406 18.433594 380.613281 Z M 18.433594 377.820312 C 18.433594 378.117188 18.195312 378.359375 17.898438 378.359375 L 15.382812 378.359375 C 15.085938 378.359375 14.84375 378.117188 14.84375 377.820312 L 14.84375 373.515625 C 14.84375 373.21875 15.085938 372.980469 15.382812 372.980469 L 17.898438 372.980469 C 18.195312 372.980469 18.433594 373.21875 18.433594 373.515625 Z M 18.433594 370.722656 C 18.433594 371.019531 18.195312 371.257812 17.898438 371.257812 L 15.382812 371.257812 C 15.085938 371.257812 14.84375 371.019531 14.84375 370.722656 L 14.84375 366.417969 C 14.84375 366.121094 15.085938 365.878906 15.382812 365.878906 L 17.898438 365.878906 C 18.195312 365.878906 18.433594 366.121094 18.433594 366.417969 Z M 18.433594 363.621094 C 18.433594 363.917969 18.195312 364.160156 17.898438 364.160156 L 15.382812 364.160156 C 15.085938 364.160156 14.84375 363.917969 14.84375 363.621094 L 14.84375 359.320312 C 14.84375 359.023438 15.085938 358.78125 15.382812 358.78125 L 17.898438 358.78125 C 18.195312 358.78125 18.433594 359.023438 18.433594 359.320312 Z M 18.433594 356.523438 C 18.433594 356.820312 18.195312 357.0625 17.898438 357.0625 L 15.382812 357.0625 C 15.085938 357.0625 14.84375 356.820312 14.84375 356.523438 L 14.84375 352.222656 C 14.84375 351.925781 15.085938 351.683594 15.382812 351.683594 L 17.898438 351.683594 C 18.195312 351.683594 18.433594 351.925781 18.433594 352.222656 Z M 23.3125 384.917969 C 23.3125 385.214844 23.074219 385.457031 22.777344 385.457031 L 20.261719 385.457031 C 19.964844 385.457031 19.722656 385.214844 19.722656 384.917969 L 19.722656 380.613281 C 19.722656 380.316406 19.964844 380.078125 20.261719 380.078125 L 22.777344 380.078125 C 23.074219 380.078125 23.3125 380.316406 23.3125 380.613281 Z M 23.3125 377.820312 C 23.3125 378.117188 23.074219 378.359375 22.777344 378.359375 L 20.261719 378.359375 C 19.964844 378.359375 19.722656 378.117188 19.722656 377.820312 L 19.722656 373.515625 C 19.722656 373.21875 19.964844 372.980469 20.261719 372.980469 L 22.777344 372.980469 C 23.074219 372.980469 23.3125 373.21875 23.3125 373.515625 Z M 23.3125 370.722656 C 23.3125 371.019531 23.074219 371.257812 22.777344 371.257812 L 20.261719 371.257812 C 19.964844 371.257812 19.722656 371.019531 19.722656 370.722656 L 19.722656 366.417969 C 19.722656 366.121094 19.964844 365.878906 20.261719 365.878906 L 22.777344 365.878906 C 23.074219 365.878906 23.3125 366.121094 23.3125 366.417969 Z M 23.3125 363.621094 C 23.3125 363.917969 23.074219 364.160156 22.777344 364.160156 L 20.261719 364.160156 C 19.964844 364.160156 19.722656 363.917969 19.722656 363.621094 L 19.722656 359.320312 C 19.722656 359.023438 19.964844 358.78125 20.261719 358.78125 L 22.777344 358.78125 C 23.074219 358.78125 23.3125 359.023438 23.3125 359.320312 Z M 23.3125 356.523438 C 23.3125 356.820312 23.074219 357.0625 22.777344 357.0625 L 20.261719 357.0625 C 19.964844 357.0625 19.722656 356.820312 19.722656 356.523438 L 19.722656 352.222656 C 19.722656 351.925781 19.964844 351.683594 20.261719 351.683594 L 22.777344 351.683594 C 23.074219 351.683594 23.3125 351.925781 23.3125 352.222656 Z M 23.3125 356.523438 "/>
</g>
<g clip-path="url(#clip4)" clip-rule="nonzero">
<path style=" stroke:none;fill-rule:nonzero;fill:rgb(97.24884%,80.778503%,27.449036%);fill-opacity:1;" d="M 153.304688 340.675781 L 111.304688 340.675781 C 107.988281 340.675781 105.304688 343.363281 105.304688 346.675781 L 105.304688 379.675781 L 159.304688 379.675781 L 159.304688 346.675781 C 159.304688 343.363281 156.617188 340.675781 153.304688 340.675781 Z M 153.304688 340.675781 "/>
</g>
<path style=" stroke:none;fill-rule:nonzero;fill:rgb(0%,0%,0%);fill-opacity:1;" d="M 120.304688 394.675781 L 120.304688 351.175781 L 126.304688 345.175781 L 129.304688 345.175781 L 135.304688 351.175781 L 135.304688 394.675781 Z M 154.804688 357.175781 C 154.804688 355.675781 153.304688 355.675781 153.304688 355.675781 L 142.804688 355.675781 C 142.804688 355.675781 141.304688 355.675781 141.304688 357.175781 L 141.304688 394.675781 L 154.804688 394.675781 Z M 154.804688 357.175781 "/>
<g clip-path="url(#clip5)" clip-rule="nonzero">
<path style=" stroke:none;fill-rule:nonzero;fill:rgb(0%,0%,0%);fill-opacity:1;" d="M 147.304688 366.175781 C 147.304688 364.675781 145.804688 364.675781 145.804688 364.675781 L 133.804688 364.675781 C 132.304688 364.675781 132.304688 366.175781 132.304688 366.175781 L 132.304688 394.675781 L 147.304688 394.675781 Z M 121.804688 369.175781 L 114.304688 369.175781 L 114.304688 361.675781 C 114.304688 361.675781 114.304688 360.175781 112.804688 360.175781 L 105.304688 360.175781 L 105.304688 388.675781 C 105.304688 391.992188 107.988281 394.675781 111.304688 394.675781 L 123.304688 394.675781 L 123.304688 370.675781 C 123.304688 370.675781 123.304688 369.175781 121.804688 369.175781 Z M 153.304688 378.175781 C 151.804688 378.175781 151.804688 379.675781 151.804688 379.675781 L 151.804688 394.675781 L 153.304688 394.675781 C 156.617188 394.675781 159.304688 391.992188 159.304688 388.675781 L 159.304688 378.175781 Z M 153.304688 378.175781 "/>
</g>
<path style=" stroke:none;fill-rule:nonzero;fill:rgb(97.24884%,80.778503%,27.449036%);fill-opacity:1;" d="M 117.304688 384.175781 L 120.304688 384.175781 L 120.304688 387.175781 L 117.304688 387.175781 Z M 117.304688 372.175781 L 120.304688 372.175781 L 120.304688 375.175781 L 117.304688 375.175781 Z M 114.304688 378.175781 L 117.304688 378.175781 L 117.304688 381.175781 L 114.304688 381.175781 Z M 129.304688 354.175781 L 132.304688 354.175781 L 132.304688 357.175781 L 129.304688 357.175781 Z M 129.304688 360.175781 L 132.304688 360.175781 L 132.304688 363.175781 L 129.304688 363.175781 Z M 126.304688 366.175781 L 129.304688 366.175781 L 129.304688 369.175781 L 126.304688 369.175781 Z M 141.304688 367.675781 L 144.304688 367.675781 L 144.304688 370.675781 L 141.304688 370.675781 Z M 138.304688 373.675781 L 141.304688 373.675781 L 141.304688 376.675781 L 138.304688 376.675781 Z M 135.304688 382.675781 L 138.304688 382.675781 L 138.304688 385.675781 L 135.304688 385.675781 Z M 148.804688 358.675781 L 151.804688 358.675781 L 151.804688 361.675781 L 148.804688 361.675781 Z M 148.804688 364.675781 L 151.804688 364.675781 L 151.804688 367.675781 L 148.804688 367.675781 Z M 148.804688 364.675781 "/>
<g clip-path="url(#clip6)" clip-rule="nonzero">
<path style=" stroke:none;fill-rule:nonzero;fill:rgb(0%,0%,0%);fill-opacity:1;" d="M 197.21875 390.71875 L 197.21875 373.34375 C 197.21875 373.003906 196.957031 372.6875 196.679688 372.496094 L 193.65625 370.40625 C 193.484375 370.289062 193.238281 370.167969 193.03125 370.167969 L 188.105469 370.167969 L 188.105469 351.226562 C 188.105469 350.925781 187.894531 350.644531 187.671875 350.449219 L 184.277344 347.640625 C 184.09375 347.480469 183.816406 347.46875 183.574219 347.46875 L 169.773438 347.46875 C 169.503906 347.46875 169.242188 347.503906 169.050781 347.695312 L 165.757812 350.953125 C 165.566406 351.144531 165.445312 351.367188 165.445312 351.640625 L 165.445312 358.949219 L 160.945312 358.949219 C 160.675781 358.949219 160.417969 359.042969 160.226562 359.230469 L 157.148438 362.292969 C 156.957031 362.484375 156.851562 362.738281 156.851562 363.011719 L 156.851562 390.769531 C 156.332031 390.9375 155.972656 391.21875 155.742188 391.46875 C 154.929688 392.355469 155.007812 393.589844 155.019531 393.722656 C 155.066406 394.25 155.503906 394.691406 156.035156 394.691406 L 198.144531 394.691406 C 198.707031 394.691406 199.261719 394.199219 199.261719 393.632812 C 199.261719 392.132812 198 391.175781 197.21875 390.71875 M 173.636719 384.917969 C 173.636719 385.214844 173.394531 385.457031 173.097656 385.457031 L 170.585938 385.457031 C 170.289062 385.457031 170.046875 385.214844 170.046875 384.917969 L 170.046875 380.613281 C 170.046875 380.316406 170.289062 380.078125 170.585938 380.078125 L 173.097656 380.078125 C 173.394531 380.078125 173.636719 380.316406 173.636719 380.613281 Z M 173.636719 377.820312 C 173.636719 378.117188 173.394531 378.359375 173.097656 378.359375 L 170.585938 378.359375 C 170.289062 378.359375 170.046875 378.117188 170.046875 377.820312 L 170.046875 373.515625 C 170.046875 373.21875 170.289062 372.980469 170.585938 372.980469 L 173.097656 372.980469 C 173.394531 372.980469 173.636719 373.21875 173.636719 373.515625 Z M 173.636719 370.722656 C 173.636719 371.019531 173.394531 371.257812 173.097656 371.257812 L 170.585938 371.257812 C 170.289062 371.257812 170.046875 371.019531 170.046875 370.722656 L 170.046875 366.417969 C 170.046875 366.121094 170.289062 365.878906 170.585938 365.878906 L 173.097656 365.878906 C 173.394531 365.878906 173.636719 366.121094 173.636719 366.417969 Z M 173.636719 363.621094 C 173.636719 363.917969 173.394531 364.160156 173.097656 364.160156 L 170.585938 364.160156 C 170.289062 364.160156 170.046875 363.917969 170.046875 363.621094 L 170.046875 359.320312 C 170.046875 359.023438 170.289062 358.78125 170.585938 358.78125 L 173.097656 358.78125 C 173.394531 358.78125 173.636719 359.023438 173.636719 359.320312 Z M 173.636719 356.523438 C 173.636719 356.820312 173.394531 357.0625 173.097656 357.0625 L 170.585938 357.0625 C 170.289062 357.0625 170.046875 356.820312 170.046875 356.523438 L 170.046875 352.222656 C 170.046875 351.925781 170.289062 351.683594 170.585938 351.683594 L 173.097656 351.683594 C 173.394531 351.683594 173.636719 351.925781 173.636719 352.222656 Z M 178.515625 384.917969 C 178.515625 385.214844 178.277344 385.457031 177.980469 385.457031 L 175.464844 385.457031 C 175.167969 385.457031 174.925781 385.214844 174.925781 384.917969 L 174.925781 380.613281 C 174.925781 380.316406 175.167969 380.078125 175.464844 380.078125 L 177.980469 380.078125 C 178.277344 380.078125 178.515625 380.316406 178.515625 380.613281 Z M 178.515625 377.820312 C 178.515625 378.117188 178.277344 378.359375 177.980469 378.359375 L 175.464844 378.359375 C 175.167969 378.359375 174.925781 378.117188 174.925781 377.820312 L 174.925781 373.515625 C 174.925781 373.21875 175.167969 372.980469 175.464844 372.980469 L 177.980469 372.980469 C 178.277344 372.980469 178.515625 373.21875 178.515625 373.515625 Z M 178.515625 370.722656 C 178.515625 371.019531 178.277344 371.257812 177.980469 371.257812 L 175.464844 371.257812 C 175.167969 371.257812 174.925781 371.019531 174.925781 370.722656 L 174.925781 366.417969 C 174.925781 366.121094 175.167969 365.878906 175.464844 365.878906 L 177.980469 365.878906 C 178.277344 365.878906 178.515625 366.121094 178.515625 366.417969 Z M 178.515625 363.621094 C 178.515625 363.917969 178.277344 364.160156 177.980469 364.160156 L 175.464844 364.160156 C 175.167969 364.160156 174.925781 363.917969 174.925781 363.621094 L 174.925781 359.320312 C 174.925781 359.023438 175.167969 358.78125 175.464844 358.78125 L 177.980469 358.78125 C 178.277344 358.78125 178.515625 359.023438 178.515625 359.320312 Z M 178.515625 356.523438 C 178.515625 356.820312 178.277344 357.0625 177.980469 357.0625 L 175.464844 357.0625 C 175.167969 357.0625 174.925781 356.820312 174.925781 356.523438 L 174.925781 352.222656 C 174.925781 351.925781 175.167969 351.683594 175.464844 351.683594 L 177.980469 351.683594 C 178.277344 351.683594 178.515625 351.925781 178.515625 352.222656 Z M 183.394531 384.917969 C 183.394531 385.214844 183.15625 385.457031 182.859375 385.457031 L 180.34375 385.457031 C 180.046875 385.457031 179.804688 385.214844 179.804688 384.917969 L 179.804688 380.613281 C 179.804688 380.316406 180.046875 380.078125 180.34375 380.078125 L 182.859375 380.078125 C 183.15625 380.078125 183.394531 380.316406 183.394531 380.613281 Z M 183.394531 377.820312 C 183.394531 378.117188 183.15625 378.359375 182.859375 378.359375 L 180.34375 378.359375 C 180.046875 378.359375 179.804688 378.117188 179.804688 377.820312 L 179.804688 373.515625 C 179.804688 373.21875 180.046875 372.980469 180.34375 372.980469 L 182.859375 372.980469 C 183.15625 372.980469 183.394531 373.21875 183.394531 373.515625 Z M 183.394531 370.722656 C 183.394531 371.019531 183.15625 371.257812 182.859375 371.257812 L 180.34375 371.257812 C 180.046875 371.257812 179.804688 371.019531 179.804688 370.722656 L 179.804688 366.417969 C 179.804688 366.121094 180.046875 365.878906 180.34375 365.878906 L 182.859375 365.878906 C 183.15625 365.878906 183.394531 366.121094 183.394531 366.417969 Z M 183.394531 363.621094 C 183.394531 363.917969 183.15625 364.160156 182.859375 364.160156 L 180.34375 364.160156 C 180.046875 364.160156 179.804688 363.917969 179.804688 363.621094 L 179.804688 359.320312 C 179.804688 359.023438 180.046875 358.78125 180.34375 358.78125 L 182.859375 358.78125 C 183.15625 358.78125 183.394531 359.023438 183.394531 359.320312 Z M 183.394531 356.523438 C 183.394531 356.820312 183.15625 357.0625 182.859375 357.0625 L 180.34375 357.0625 C 180.046875 357.0625 179.804688 356.820312 179.804688 356.523438 L 179.804688 352.222656 C 179.804688 351.925781 180.046875 351.683594 180.34375 351.683594 L 182.859375 351.683594 C 183.15625 351.683594 183.394531 351.925781 183.394531 352.222656 Z M 183.394531 356.523438 "/>
</g>
<g clip-path="url(#clip7)" clip-rule="nonzero">
<path style=" stroke:none;fill-rule:nonzero;fill:rgb(0%,0%,0%);fill-opacity:1;" d="M 223.507812 368.042969 L 223.507812 355.640625 C 223.507812 354.371094 223.011719 353.144531 222.109375 352.257812 L 218.046875 348.15625 C 217.828125 347.933594 217.566406 347.757812 217.28125 347.636719 C 216.992188 347.515625 216.6875 347.453125 216.375 347.453125 C 216.0625 347.453125 215.757812 347.515625 215.46875 347.636719 C 215.183594 347.757812 214.921875 347.933594 214.703125 348.15625 L 210.664062 352.234375 C 209.761719 353.144531 209.265625 354.371094 209.265625 355.640625 L 209.265625 358.449219 L 199.769531 358.449219 C 197.15625 358.449219 195.019531 360.609375 195.019531 363.246094 L 195.019531 387.238281 C 195.019531 389.875 197.15625 392.035156 199.769531 392.035156 L 233.003906 392.035156 C 235.617188 392.035156 237.753906 389.875 237.753906 387.238281 L 237.753906 372.84375 C 237.753906 370.203125 235.617188 368.042969 233.003906 368.042969 Z M 204.515625 387.238281 L 199.769531 387.238281 L 199.769531 382.4375 L 204.515625 382.4375 Z M 204.515625 377.640625 L 199.769531 377.640625 L 199.769531 372.84375 L 204.515625 372.84375 Z M 204.515625 368.042969 L 199.769531 368.042969 L 199.769531 363.246094 L 204.515625 363.246094 Z M 218.761719 387.238281 L 214.011719 387.238281 L 214.011719 382.4375 L 218.761719 382.4375 Z M 218.761719 377.640625 L 214.011719 377.640625 L 214.011719 372.84375 L 218.761719 372.84375 Z M 218.761719 368.042969 L 214.011719 368.042969 L 214.011719 363.246094 L 218.761719 363.246094 Z M 218.761719 358.449219 L 214.011719 358.449219 L 214.011719 353.648438 L 218.761719 353.648438 Z M 233.003906 387.238281 L 228.257812 387.238281 L 228.257812 382.4375 L 233.003906 382.4375 Z M 233.003906 377.640625 L 228.257812 377.640625 L 228.257812 372.84375 L 233.003906 372.84375 Z M 233.003906 377.640625 "/>
</g>
<g clip-path="url(#clip8)" clip-rule="nonzero">
<path style=" stroke:none;fill-rule:nonzero;fill:rgb(97.24884%,80.778503%,27.449036%);fill-opacity:1;" d="M 310.3125 340.675781 L 268.3125 340.675781 C 264.996094 340.675781 262.3125 343.363281 262.3125 346.675781 L 262.3125 379.675781 L 316.3125 379.675781 L 316.3125 346.675781 C 316.3125 343.363281 313.625 340.675781 310.3125 340.675781 Z M 310.3125 340.675781 "/>
</g>
<path style=" stroke:none;fill-rule:nonzero;fill:rgb(0%,0%,0%);fill-opacity:1;" d="M 277.3125 394.675781 L 277.3125 351.175781 L 283.3125 345.175781 L 286.3125 345.175781 L 292.3125 351.175781 L 292.3125 394.675781 Z M 311.8125 357.175781 C 311.8125 355.675781 310.3125 355.675781 310.3125 355.675781 L 299.8125 355.675781 C 299.8125 355.675781 298.3125 355.675781 298.3125 357.175781 L 298.3125 394.675781 L 311.8125 394.675781 Z M 311.8125 357.175781 "/>
<g clip-path="url(#clip9)" clip-rule="nonzero">
<path style=" stroke:none;fill-rule:nonzero;fill:rgb(0%,0%,0%);fill-opacity:1;" d="M 304.3125 366.175781 C 304.3125 364.675781 302.8125 364.675781 302.8125 364.675781 L 290.8125 364.675781 C 289.3125 364.675781 289.3125 366.175781 289.3125 366.175781 L 289.3125 394.675781 L 304.3125 394.675781 Z M 278.8125 369.175781 L 271.3125 369.175781 L 271.3125 361.675781 C 271.3125 361.675781 271.3125 360.175781 269.8125 360.175781 L 262.3125 360.175781 L 262.3125 388.675781 C 262.3125 391.992188 264.996094 394.675781 268.3125 394.675781 L 280.3125 394.675781 L 280.3125 370.675781 C 280.3125 370.675781 280.3125 369.175781 278.8125 369.175781 Z M 310.3125 378.175781 C 308.8125 378.175781 308.8125 379.675781 308.8125 379.675781 L 308.8125 394.675781 L 310.3125 394.675781 C 313.625 394.675781 316.3125 391.992188 316.3125 388.675781 L 316.3125 378.175781 Z M 310.3125 378.175781 "/>
</g>
<path style=" stroke:none;fill-rule:nonzero;fill:rgb(97.24884%,80.778503%,27.449036%);fill-opacity:1;" d="M 274.3125 384.175781 L 277.3125 384.175781 L 277.3125 387.175781 L 274.3125 387.175781 Z M 274.3125 372.175781 L 277.3125 372.175781 L 277.3125 375.175781 L 274.3125 375.175781 Z M 271.3125 378.175781 L 274.3125 378.175781 L 274.3125 381.175781 L 271.3125 381.175781 Z M 286.3125 354.175781 L 289.3125 354.175781 L 289.3125 357.175781 L 286.3125 357.175781 Z M 286.3125 360.175781 L 289.3125 360.175781 L 289.3125 363.175781 L 286.3125 363.175781 Z M 283.3125 366.175781 L 286.3125 366.175781 L 286.3125 369.175781 L 283.3125 369.175781 Z M 298.3125 367.675781 L 301.3125 367.675781 L 301.3125 370.675781 L 298.3125 370.675781 Z M 295.3125 373.675781 L 298.3125 373.675781 L 298.3125 376.675781 L 295.3125 376.675781 Z M 292.3125 382.675781 L 295.3125 382.675781 L 295.3125 385.675781 L 292.3125 385.675781 Z M 305.8125 358.675781 L 308.8125 358.675781 L 308.8125 361.675781 L 305.8125 361.675781 Z M 305.8125 364.675781 L 308.8125 364.675781 L 308.8125 367.675781 L 305.8125 367.675781 Z M 305.8125 364.675781 "/>
<g clip-path="url(#clip10)" clip-rule="nonzero">
<path style=" stroke:none;fill-rule:nonzero;fill:rgb(0%,0%,0%);fill-opacity:1;" d="M 264 349.230469 L 236.210938 349.230469 C 234.773438 349.230469 233.605469 350.40625 233.605469 351.84375 L 233.605469 392.792969 L 266.605469 392.792969 L 266.605469 351.84375 C 266.605469 350.40625 265.4375 349.230469 264 349.230469 Z M 252.710938 369.269531 L 252.710938 364.042969 L 260.527344 364.042969 L 260.527344 369.269531 Z M 260.527344 372.753906 L 260.527344 377.984375 L 252.710938 377.984375 L 252.710938 372.753906 Z M 252.710938 360.558594 L 252.710938 355.332031 L 260.527344 355.332031 L 260.527344 360.558594 Z M 239.683594 369.269531 L 239.683594 364.042969 L 247.5 364.042969 L 247.5 369.269531 Z M 247.5 372.753906 L 247.5 377.984375 L 239.683594 377.984375 L 239.683594 372.753906 Z M 239.683594 360.558594 L 239.683594 355.332031 L 247.5 355.332031 L 247.5 360.558594 Z M 239.683594 381.46875 L 247.5 381.46875 L 247.5 386.695312 L 239.683594 386.695312 Z M 252.710938 381.46875 L 260.527344 381.46875 L 260.527344 391.050781 L 252.710938 391.050781 Z M 252.710938 381.46875 "/>
</g>
<g clip-path="url(#clip11)" clip-rule="nonzero">
<path style=" stroke:none;fill-rule:nonzero;fill:rgb(0%,0%,0%);fill-opacity:1;" d="M 353.984375 390.71875 L 353.984375 373.34375 C 353.984375 373.003906 353.71875 372.6875 353.441406 372.496094 L 350.417969 370.40625 C 350.25 370.289062 350 370.167969 349.796875 370.167969 L 344.867188 370.167969 L 344.867188 351.226562 C 344.867188 350.925781 344.660156 350.644531 344.433594 350.449219 L 341.039062 347.640625 C 340.855469 347.480469 340.582031 347.46875 340.335938 347.46875 L 326.539062 347.46875 C 326.265625 347.46875 326.007812 347.503906 325.8125 347.695312 L 322.519531 350.953125 C 322.328125 351.144531 322.210938 351.367188 322.210938 351.640625 L 322.210938 358.949219 L 317.707031 358.949219 C 317.4375 358.949219 317.179688 359.042969 316.988281 359.230469 L 313.910156 362.292969 C 313.71875 362.484375 313.613281 362.738281 313.613281 363.011719 L 313.613281 390.769531 C 313.09375 390.9375 312.734375 391.21875 312.503906 391.46875 C 311.695312 392.355469 311.769531 393.589844 311.78125 393.722656 C 311.828125 394.25 312.265625 394.691406 312.796875 394.691406 L 354.90625 394.691406 C 355.472656 394.691406 356.023438 394.199219 356.023438 393.632812 C 356.023438 392.132812 354.761719 391.175781 353.984375 390.71875 M 330.398438 384.917969 C 330.398438 385.214844 330.160156 385.457031 329.859375 385.457031 L 327.347656 385.457031 C 327.050781 385.457031 326.808594 385.214844 326.808594 384.917969 L 326.808594 380.613281 C 326.808594 380.316406 327.050781 380.078125 327.347656 380.078125 L 329.859375 380.078125 C 330.160156 380.078125 330.398438 380.316406 330.398438 380.613281 Z M 330.398438 377.820312 C 330.398438 378.117188 330.160156 378.359375 329.859375 378.359375 L 327.347656 378.359375 C 327.050781 378.359375 326.808594 378.117188 326.808594 377.820312 L 326.808594 373.515625 C 326.808594 373.21875 327.050781 372.980469 327.347656 372.980469 L 329.859375 372.980469 C 330.160156 372.980469 330.398438 373.21875 330.398438 373.515625 Z M 330.398438 370.722656 C 330.398438 371.019531 330.160156 371.257812 329.859375 371.257812 L 327.347656 371.257812 C 327.050781 371.257812 326.808594 371.019531 326.808594 370.722656 L 326.808594 366.417969 C 326.808594 366.121094 327.050781 365.878906 327.347656 365.878906 L 329.859375 365.878906 C 330.160156 365.878906 330.398438 366.121094 330.398438 366.417969 Z M 330.398438 363.621094 C 330.398438 363.917969 330.160156 364.160156 329.859375 364.160156 L 327.347656 364.160156 C 327.050781 364.160156 326.808594 363.917969 326.808594 363.621094 L 326.808594 359.320312 C 326.808594 359.023438 327.050781 358.78125 327.347656 358.78125 L 329.859375 358.78125 C 330.160156 358.78125 330.398438 359.023438 330.398438 359.320312 Z M 330.398438 356.523438 C 330.398438 356.820312 330.160156 357.0625 329.859375 357.0625 L 327.347656 357.0625 C 327.050781 357.0625 326.808594 356.820312 326.808594 356.523438 L 326.808594 352.222656 C 326.808594 351.925781 327.050781 351.683594 327.347656 351.683594 L 329.859375 351.683594 C 330.160156 351.683594 330.398438 351.925781 330.398438 352.222656 Z M 335.277344 384.917969 C 335.277344 385.214844 335.039062 385.457031 334.742188 385.457031 L 332.226562 385.457031 C 331.929688 385.457031 331.6875 385.214844 331.6875 384.917969 L 331.6875 380.613281 C 331.6875 380.316406 331.929688 380.078125 332.226562 380.078125 L 334.742188 380.078125 C 335.039062 380.078125 335.277344 380.316406 335.277344 380.613281 Z M 335.277344 377.820312 C 335.277344 378.117188 335.039062 378.359375 334.742188 378.359375 L 332.226562 378.359375 C 331.929688 378.359375 331.6875 378.117188 331.6875 377.820312 L 331.6875 373.515625 C 331.6875 373.21875 331.929688 372.980469 332.226562 372.980469 L 334.742188 372.980469 C 335.039062 372.980469 335.277344 373.21875 335.277344 373.515625 Z M 335.277344 370.722656 C 335.277344 371.019531 335.039062 371.257812 334.742188 371.257812 L 332.226562 371.257812 C 331.929688 371.257812 331.6875 371.019531 331.6875 370.722656 L 331.6875 366.417969 C 331.6875 366.121094 331.929688 365.878906 332.226562 365.878906 L 334.742188 365.878906 C 335.039062 365.878906 335.277344 366.121094 335.277344 366.417969 Z M 335.277344 363.621094 C 335.277344 363.917969 335.039062 364.160156 334.742188 364.160156 L 332.226562 364.160156 C 331.929688 364.160156 331.6875 363.917969 331.6875 363.621094 L 331.6875 359.320312 C 331.6875 359.023438 331.929688 358.78125 332.226562 358.78125 L 334.742188 358.78125 C 335.039062 358.78125 335.277344 359.023438 335.277344 359.320312 Z M 335.277344 356.523438 C 335.277344 356.820312 335.039062 357.0625 334.742188 357.0625 L 332.226562 357.0625 C 331.929688 357.0625 331.6875 356.820312 331.6875 356.523438 L 331.6875 352.222656 C 331.6875 351.925781 331.929688 351.683594 332.226562 351.683594 L 334.742188 351.683594 C 335.039062 351.683594 335.277344 351.925781 335.277344 352.222656 Z M 340.15625 384.917969 C 340.15625 385.214844 339.917969 385.457031 339.621094 385.457031 L 337.105469 385.457031 C 336.808594 385.457031 336.566406 385.214844 336.566406 384.917969 L 336.566406 380.613281 C 336.566406 380.316406 336.808594 380.078125 337.105469 380.078125 L 339.621094 380.078125 C 339.917969 380.078125 340.15625 380.316406 340.15625 380.613281 Z M 340.15625 377.820312 C 340.15625 378.117188 339.917969 378.359375 339.621094 378.359375 L 337.105469 378.359375 C 336.808594 378.359375 336.566406 378.117188 336.566406 377.820312 L 336.566406 373.515625 C 336.566406 373.21875 336.808594 372.980469 337.105469 372.980469 L 339.621094 372.980469 C 339.917969 372.980469 340.15625 373.21875 340.15625 373.515625 Z M 340.15625 370.722656 C 340.15625 371.019531 339.917969 371.257812 339.621094 371.257812 L 337.105469 371.257812 C 336.808594 371.257812 336.566406 371.019531 336.566406 370.722656 L 336.566406 366.417969 C 336.566406 366.121094 336.808594 365.878906 337.105469 365.878906 L 339.621094 365.878906 C 339.917969 365.878906 340.15625 366.121094 340.15625 366.417969 Z M 340.15625 363.621094 C 340.15625 363.917969 339.917969 364.160156 339.621094 364.160156 L 337.105469 364.160156 C 336.808594 364.160156 336.566406 363.917969 336.566406 363.621094 L 336.566406 359.320312 C 336.566406 359.023438 336.808594 358.78125 337.105469 358.78125 L 339.621094 358.78125 C 339.917969 358.78125 340.15625 359.023438 340.15625 359.320312 Z M 340.15625 356.523438 C 340.15625 356.820312 339.917969 357.0625 339.621094 357.0625 L 337.105469 357.0625 C 336.808594 357.0625 336.566406 356.820312 336.566406 356.523438 L 336.566406 352.222656 C 336.566406 351.925781 336.808594 351.683594 337.105469 351.683594 L 339.621094 351.683594 C 339.917969 351.683594 340.15625 351.925781 340.15625 352.222656 Z M 340.15625 356.523438 "/>
</g>
<g clip-path="url(#clip12)" clip-rule="nonzero">
<path style=" stroke:none;fill-rule:nonzero;fill:rgb(0%,0%,0%);fill-opacity:1;" d="M 379.507812 368.042969 L 379.507812 355.640625 C 379.507812 354.371094 379.011719 353.144531 378.109375 352.257812 L 374.046875 348.15625 C 373.828125 347.933594 373.566406 347.757812 373.28125 347.636719 C 372.992188 347.515625 372.6875 347.453125 372.375 347.453125 C 372.0625 347.453125 371.757812 347.515625 371.46875 347.636719 C 371.183594 347.757812 370.921875 347.933594 370.699219 348.15625 L 366.664062 352.234375 C 365.761719 353.144531 365.265625 354.371094 365.265625 355.640625 L 365.265625 358.449219 L 355.769531 358.449219 C 353.15625 358.449219 351.019531 360.609375 351.019531 363.246094 L 351.019531 387.238281 C 351.019531 389.875 353.15625 392.035156 355.769531 392.035156 L 389.003906 392.035156 C 391.617188 392.035156 393.753906 389.875 393.753906 387.238281 L 393.753906 372.84375 C 393.753906 370.203125 391.617188 368.042969 389.003906 368.042969 Z M 360.515625 387.238281 L 355.769531 387.238281 L 355.769531 382.4375 L 360.515625 382.4375 Z M 360.515625 377.640625 L 355.769531 377.640625 L 355.769531 372.84375 L 360.515625 372.84375 Z M 360.515625 368.042969 L 355.769531 368.042969 L 355.769531 363.246094 L 360.515625 363.246094 Z M 374.761719 387.238281 L 370.011719 387.238281 L 370.011719 382.4375 L 374.761719 382.4375 Z M 374.761719 377.640625 L 370.011719 377.640625 L 370.011719 372.84375 L 374.761719 372.84375 Z M 374.761719 368.042969 L 370.011719 368.042969 L 370.011719 363.246094 L 374.761719 363.246094 Z M 374.761719 358.449219 L 370.011719 358.449219 L 370.011719 353.648438 L 374.761719 353.648438 Z M 389.003906 387.238281 L 384.257812 387.238281 L 384.257812 382.4375 L 389.003906 382.4375 Z M 389.003906 377.640625 L 384.257812 377.640625 L 384.257812 372.84375 L 389.003906 372.84375 Z M 389.003906 377.640625 "/>
</g>
</g>
</svg>
