<?xml version="1.0" encoding="UTF-8"?>
<svg xmlns="http://www.w3.org/2000/svg" xmlns:xlink="http://www.w3.org/1999/xlink" width="224.87999pt" height="225pt" viewBox="0 0 224.87999 225" version="1.2">
<defs>
<clipPath id="clip1">
  <path d="M 14 14.035156 L 210 14.035156 L 210 202.1875 L 14 202.1875 Z M 14 14.035156 "/>
</clipPath>
</defs>
<g id="surface1">
<g clip-path="url(#clip1)" clip-rule="nonzero">
<path style=" stroke:none;fill-rule:nonzero;fill:rgb(100%,100%,100%);fill-opacity:1;" d="M 109.058594 14.035156 C 57.160156 14.035156 14.9375 56.238281 14.9375 108.113281 C 14.9375 159.984375 57.160156 202.1875 109.058594 202.1875 C 160.957031 202.1875 203.175781 159.984375 203.175781 108.113281 C 203.175781 97.519531 201.332031 87.359375 198.085938 77.851562 L 182.847656 93.082031 C 183.835938 97.9375 184.351562 102.964844 184.351562 108.113281 C 184.351562 149.609375 150.574219 183.371094 109.058594 183.371094 C 67.542969 183.371094 33.761719 149.609375 33.761719 108.113281 C 33.761719 66.617188 67.542969 32.851562 109.058594 32.851562 C 124.425781 32.851562 138.722656 37.5 150.65625 45.4375 L 164.132812 31.96875 C 148.621094 20.738281 129.621094 14.035156 109.058594 14.035156 Z M 196.523438 26.199219 L 99.644531 123.03125 L 68.652344 92.054688 L 55.34375 105.355469 L 99.644531 149.636719 L 209.832031 39.503906 Z M 196.523438 26.199219 "/>
</g>
</g>
</svg>
