<?xml version="1.0" encoding="UTF-8"?>
<svg xmlns="http://www.w3.org/2000/svg" xmlns:xlink="http://www.w3.org/1999/xlink" width="224.87999pt" height="225pt" viewBox="0 0 224.87999 225" version="1.2">
<defs>
<clipPath id="clip1">
  <path d="M 177 22 L 215.671875 22 L 215.671875 96 L 177 96 Z M 177 22 "/>
</clipPath>
<clipPath id="clip2">
  <path d="M 45 11.761719 L 185 11.761719 L 185 160 L 45 160 Z M 45 11.761719 "/>
</clipPath>
<clipPath id="clip3">
  <path d="M 57 194 L 174 194 L 174 218.648438 L 57 218.648438 Z M 57 194 "/>
</clipPath>
</defs>
<g id="surface1">
<path style=" stroke:none;fill-rule:nonzero;fill:rgb(94.898987%,67.449951%,20.388794%);fill-opacity:1;" d="M 136.585938 181.089844 C 136.585938 192.851562 127.042969 202.394531 115.277344 202.394531 C 103.511719 202.394531 93.96875 192.851562 93.96875 181.089844 C 93.96875 169.328125 103.511719 159.796875 115.277344 159.796875 C 127.042969 159.796875 136.585938 169.328125 136.585938 181.089844 "/>
<path style=" stroke:none;fill-rule:nonzero;fill:rgb(94.509888%,61.178589%,20.388794%);fill-opacity:1;" d="M 53.242188 83.472656 L 39.183594 83.472656 C 33.71875 83.472656 29.253906 79.011719 29.253906 73.546875 L 29.253906 44.609375 C 29.253906 39.144531 33.71875 34.679688 39.183594 34.679688 L 53.242188 34.679688 L 53.242188 22.492188 L 30.078125 22.492188 C 21.890625 22.492188 15.195312 29.1875 15.195312 37.371094 L 15.195312 80.78125 C 15.195312 88.96875 21.890625 95.664062 30.078125 95.664062 L 53.242188 95.664062 L 53.242188 83.472656 "/>
<g clip-path="url(#clip1)" clip-rule="nonzero">
<path style=" stroke:none;fill-rule:nonzero;fill:rgb(94.509888%,61.178589%,20.388794%);fill-opacity:1;" d="M 177.3125 83.472656 L 191.371094 83.472656 C 196.835938 83.472656 201.300781 79.011719 201.300781 73.546875 L 201.300781 44.609375 C 201.300781 39.144531 196.835938 34.679688 191.371094 34.679688 L 177.3125 34.679688 L 177.3125 22.492188 L 200.476562 22.492188 C 208.664062 22.492188 215.359375 29.1875 215.359375 37.371094 L 215.359375 80.78125 C 215.359375 88.96875 208.664062 95.664062 200.476562 95.664062 L 177.3125 95.664062 L 177.3125 83.472656 "/>
</g>
<g clip-path="url(#clip2)" clip-rule="nonzero">
<path style=" stroke:none;fill-rule:nonzero;fill:rgb(94.898987%,67.449951%,20.388794%);fill-opacity:1;" d="M 45.933594 11.75 L 45.933594 90.324219 C 45.933594 128.460938 77.136719 159.660156 115.277344 159.660156 C 153.417969 159.660156 184.621094 128.460938 184.621094 90.324219 L 184.621094 11.75 L 45.933594 11.75 "/>
</g>
<path style=" stroke:none;fill-rule:nonzero;fill:rgb(94.509888%,61.178589%,20.388794%);fill-opacity:1;" d="M 150.164062 76.894531 C 150.164062 96.164062 134.539062 111.773438 115.277344 111.773438 C 96.015625 111.773438 80.390625 96.164062 80.390625 76.894531 C 80.390625 57.632812 96.015625 42.023438 115.277344 42.023438 C 134.539062 42.023438 150.164062 57.632812 150.164062 76.894531 "/>
<path style=" stroke:none;fill-rule:nonzero;fill:rgb(94.509888%,61.178589%,20.388794%);fill-opacity:1;" d="M 151.457031 169.460938 L 79.097656 169.460938 L 79.097656 155.738281 L 151.457031 155.738281 L 151.457031 169.460938 "/>
<g clip-path="url(#clip3)" clip-rule="nonzero">
<path style=" stroke:none;fill-rule:nonzero;fill:rgb(94.509888%,61.178589%,20.388794%);fill-opacity:1;" d="M 173.535156 218.660156 C 166.402344 204.730469 142.96875 194.414062 115.277344 194.414062 C 87.585938 194.414062 64.140625 204.730469 57.007812 218.660156 L 173.535156 218.660156 "/>
</g>
<path style=" stroke:none;fill-rule:nonzero;fill:rgb(94.509888%,61.178589%,20.388794%);fill-opacity:1;" d="M 112.441406 56.414062 L 112.441406 56.421875 L 103.367188 65.496094 L 108.582031 70.699219 L 112.441406 66.839844 L 112.441406 97.375 L 119.8125 97.375 L 119.8125 56.414062 L 112.441406 56.414062 "/>
</g>
</svg>
