<svg width="140" height="90" viewBox="0 0 140 90" fill="none" xmlns="http://www.w3.org/2000/svg">
<path d="M15.2275 74.0845H6.50879V83.0908H1.96777V61.0518H16.3174V64.73H6.50879V70.4214H15.2275V74.0845ZM23.2803 83.0908H18.8906V66.7129H23.2803V83.0908ZM18.6333 62.4746C18.6333 61.8187 18.8503 61.2788 19.2842 60.855C19.7282 60.4312 20.3286 60.2192 21.0854 60.2192C21.8322 60.2192 22.4276 60.4312 22.8716 60.855C23.3156 61.2788 23.5376 61.8187 23.5376 62.4746C23.5376 63.1406 23.3105 63.6855 22.8564 64.1094C22.4124 64.5332 21.8221 64.7451 21.0854 64.7451C20.3488 64.7451 19.7534 64.5332 19.2993 64.1094C18.8553 63.6855 18.6333 63.1406 18.6333 62.4746ZM33.1343 71.6021L35.8892 66.7129H40.5664L35.9043 74.7354L40.7632 83.0908H36.0708L33.1494 77.9443L30.2432 83.0908H25.5356L30.3945 74.7354L25.7476 66.7129H30.4399L33.1343 71.6021ZM48.8916 61.0518L54.5527 77.0361L60.1836 61.0518H66.1475V83.0908H61.5913V77.0664L62.0454 66.6675L56.0967 83.0908H52.9785L47.0449 66.6826L47.499 77.0664V83.0908H42.958V61.0518H48.8916ZM75.9409 76.8999L78.9683 66.7129H83.6606L77.0762 85.6338L76.7129 86.4966C75.734 88.6359 74.1195 89.7056 71.8691 89.7056C71.2334 89.7056 70.5876 89.6097 69.9316 89.418V86.103L70.5977 86.1182C71.4251 86.1182 72.0407 85.992 72.4443 85.7397C72.8581 85.4875 73.181 85.0687 73.4131 84.4834L73.9277 83.1362L68.1909 66.7129H72.8984L75.9409 76.8999ZM102.975 75.7495C102.804 78.1209 101.926 79.9878 100.341 81.3501C98.7671 82.7124 96.6883 83.3936 94.105 83.3936C91.2795 83.3936 89.0544 82.445 87.4297 80.5479C85.8151 78.6406 85.0078 76.027 85.0078 72.707V71.3599C85.0078 69.2407 85.3812 67.3739 86.1279 65.7593C86.8747 64.1447 87.9393 62.9085 89.3218 62.0508C90.7144 61.1829 92.3289 60.749 94.1655 60.749C96.7085 60.749 98.757 61.4302 100.311 62.7925C101.865 64.1548 102.763 66.0671 103.005 68.5293H98.4644C98.3534 67.1064 97.9548 66.0771 97.2686 65.4414C96.5924 64.7956 95.5581 64.4727 94.1655 64.4727C92.6519 64.4727 91.5166 65.0176 90.7598 66.1074C90.013 67.1872 89.6296 68.8674 89.6094 71.1479V72.813C89.6094 75.1945 89.9676 76.9352 90.6841 78.0352C91.4106 79.1351 92.5509 79.6851 94.105 79.6851C95.5076 79.6851 96.5521 79.3672 97.2383 78.7314C97.9346 78.0856 98.3332 77.0916 98.4341 75.7495H102.975ZM110.286 83.0908H105.896V66.7129H110.286V83.0908ZM105.639 62.4746C105.639 61.8187 105.856 61.2788 106.29 60.855C106.734 60.4312 107.334 60.2192 108.091 60.2192C108.838 60.2192 109.433 60.4312 109.877 60.855C110.321 61.2788 110.543 61.8187 110.543 62.4746C110.543 63.1406 110.316 63.6855 109.862 64.1094C109.418 64.5332 108.828 64.7451 108.091 64.7451C107.355 64.7451 106.759 64.5332 106.305 64.1094C105.861 63.6855 105.639 63.1406 105.639 62.4746ZM119.141 62.6865V66.7129H121.941V69.9219H119.141V78.0957C119.141 78.7012 119.257 79.1351 119.489 79.3975C119.721 79.6598 120.165 79.791 120.821 79.791C121.306 79.791 121.735 79.7557 122.108 79.6851V83C121.25 83.2624 120.367 83.3936 119.459 83.3936C116.391 83.3936 114.827 81.8446 114.767 78.7466V69.9219H112.375V66.7129H114.767V62.6865H119.141ZM130.494 76.8999L133.521 66.7129H138.213L131.629 85.6338L131.266 86.4966C130.287 88.6359 128.672 89.7056 126.422 89.7056C125.786 89.7056 125.14 89.6097 124.484 89.418V86.103L125.15 86.1182C125.978 86.1182 126.593 85.992 126.997 85.7397C127.411 85.4875 127.734 85.0687 127.966 84.4834L128.48 83.1362L122.744 66.7129H127.451L130.494 76.8999Z" fill="black"/>
<path d="M35 25.0321V9.95296C35 8.40713 34.3875 6.91963 33.2792 5.84046L28.2917 0.852962C28.0218 0.582576 27.7013 0.368063 27.3485 0.2217C26.9956 0.0753374 26.6174 0 26.2354 0C25.8534 0 25.4752 0.0753374 25.1223 0.2217C24.7695 0.368063 24.449 0.582576 24.1792 0.852962L19.2208 5.8113C18.1125 6.91963 17.5 8.40713 17.5 9.95296V13.3655H5.83333C2.625 13.3655 0 15.9905 0 19.1988V48.3655C0 51.5738 2.625 54.1988 5.83333 54.1988H46.6667C49.875 54.1988 52.5 51.5738 52.5 48.3655V30.8655C52.5 27.6571 49.875 25.0321 46.6667 25.0321H35ZM11.6667 48.3655H5.83333V42.5321H11.6667V48.3655ZM11.6667 36.6988H5.83333V30.8655H11.6667V36.6988ZM11.6667 25.0321H5.83333V19.1988H11.6667V25.0321ZM29.1667 48.3655H23.3333V42.5321H29.1667V48.3655ZM29.1667 36.6988H23.3333V30.8655H29.1667V36.6988ZM29.1667 25.0321H23.3333V19.1988H29.1667V25.0321ZM29.1667 13.3655H23.3333V7.53213H29.1667V13.3655ZM46.6667 48.3655H40.8333V42.5321H46.6667V48.3655ZM46.6667 36.6988H40.8333V30.8655H46.6667V36.6988Z" fill="black"/>
</svg>
