<?xml version="1.0" encoding="UTF-8"?>
<svg xmlns="http://www.w3.org/2000/svg" xmlns:xlink="http://www.w3.org/1999/xlink" width="375pt" height="374.999991pt" viewBox="0 0 375 374.999991" version="1.2">
<defs>
<clipPath id="clip1">
  <path d="M 112.5 216 L 149 216 L 149 255.5625 L 112.5 255.5625 Z M 112.5 216 "/>
</clipPath>
</defs>
<g id="surface1">
<path style=" stroke:none;fill-rule:nonzero;fill:rgb(0%,0%,0%);fill-opacity:1;" d="M 170.691406 209.800781 L 151.140625 230.539062 C 148.902344 232.914062 149 236.660156 151.359375 238.910156 C 152.5 239.996094 153.957031 240.535156 155.414062 240.535156 C 156.972656 240.535156 158.53125 239.917969 159.6875 238.6875 L 179.273438 217.910156 C 176.617188 215.203125 173.691406 212.386719 170.691406 209.800781 Z M 170.691406 209.800781 "/>
<path style=" stroke:none;fill-rule:nonzero;fill:rgb(0%,0%,0%);fill-opacity:1;" d="M 221.957031 149.234375 C 220.066406 150.628906 218.253906 152.628906 216.511719 155.085938 L 219.769531 157.914062 C 219.507812 156.421875 219.550781 154.546875 220.363281 152.023438 L 224.722656 149.3125 C 223.871094 149.320312 223.015625 149.246094 222.160156 149.085938 C 222.089844 149.136719 222.027344 149.183594 221.957031 149.234375 Z M 221.957031 149.234375 "/>
<path style=" stroke:none;fill-rule:nonzero;fill:rgb(0%,0%,0%);fill-opacity:1;" d="M 237.230469 140.269531 C 237.023438 140.867188 236.777344 141.441406 236.5 141.988281 L 260.25 127.226562 C 261.960938 126.160156 262.492188 123.902344 261.433594 122.179688 C 260.375 120.457031 258.125 119.921875 256.414062 120.988281 L 237.570312 132.703125 C 238.164062 135.125 238.097656 137.738281 237.230469 140.269531 Z M 237.230469 140.269531 "/>
<path style=" stroke:none;fill-rule:nonzero;fill:rgb(0%,0%,0%);fill-opacity:1;" d="M 211.476562 163.828125 C 206.9375 173.1875 203.089844 185.183594 200.074219 196.425781 C 200.847656 196.578125 201.660156 196.582031 202.480469 196.402344 L 206.554688 195.507812 L 197.273438 207.5625 C 196.761719 209.742188 196.285156 211.835938 195.851562 213.8125 C 196.214844 214.859375 196.867188 215.816406 197.804688 216.546875 C 198.878906 217.382812 200.148438 217.785156 201.40625 217.785156 C 203.167969 217.785156 204.90625 216.996094 206.066406 215.488281 L 225.796875 189.871094 C 227.3125 187.902344 227.441406 185.1875 226.117188 183.082031 C 224.792969 180.976562 222.304688 179.925781 219.882812 180.460938 L 206.910156 183.308594 C 208.890625 179.605469 211.648438 175.375 215.578125 170.859375 C 217.632812 172.289062 219.363281 172.429688 220.722656 171.855469 Z M 211.476562 163.828125 "/>
<path style=" stroke:none;fill-rule:nonzero;fill:rgb(0%,0%,0%);fill-opacity:1;" d="M 215.777344 156.160156 C 214.496094 158.09375 213.257812 160.265625 212.066406 162.628906 L 221.839844 171.113281 C 222.523438 171.703125 223.371094 172.003906 224.222656 172.003906 C 224.917969 172.003906 225.613281 171.804688 226.226562 171.398438 L 245.015625 158.992188 C 246.699219 157.878906 247.167969 155.605469 246.0625 153.914062 C 244.957031 152.21875 242.695312 151.75 241.011719 152.863281 L 224.523438 163.75 Z M 215.777344 156.160156 "/>
<path style=" stroke:none;fill-rule:nonzero;fill:rgb(0%,0%,0%);fill-opacity:1;" d="M 134.320312 196.683594 C 136.546875 198.265625 141.113281 199.785156 150.207031 198.058594 C 150.761719 197.953125 151.332031 197.902344 151.921875 197.902344 C 164.839844 197.902344 185.929688 222.226562 191.171875 228.519531 C 193.121094 217.519531 203.621094 162.257812 220.125 148.53125 C 218.0625 147.792969 216.296875 146.589844 214.890625 145.085938 C 212.796875 144.894531 210.042969 144.777344 206.878906 145.199219 C 205.746094 147.589844 204.277344 149.765625 202.007812 151 C 197.109375 153.660156 193.566406 152.207031 192.082031 151.300781 C 191.464844 151.757812 190.84375 152.242188 190.222656 152.765625 C 177.578125 163.425781 136.910156 190.3125 131.886719 193.625 C 132.121094 194.300781 132.746094 195.566406 134.320312 196.683594 Z M 134.320312 196.683594 "/>
<path style=" stroke:none;fill-rule:nonzero;fill:rgb(0%,0%,0%);fill-opacity:1;" d="M 201.394531 149.855469 C 207.203125 146.703125 207.371094 135.738281 211.414062 133.855469 C 211.535156 133.070312 211.722656 132.285156 211.988281 131.507812 C 212.210938 130.863281 212.476562 130.246094 212.785156 129.65625 C 208.476562 129.234375 203.078125 130.429688 200.359375 139.65625 C 197.6875 148.730469 194.207031 149.179688 191.820312 148.289062 C 189.429688 147.394531 193.863281 153.949219 201.394531 149.855469 Z M 201.394531 149.855469 "/>
<path style=" stroke:none;fill-rule:nonzero;fill:rgb(0%,0%,0%);fill-opacity:1;" d="M 228.546875 124.421875 C 229.296875 124.683594 230.011719 125.015625 230.695312 125.414062 C 231.378906 125.816406 232.019531 126.28125 232.609375 126.808594 C 233.203125 127.339844 233.738281 127.917969 234.21875 128.554688 C 234.695312 129.1875 235.109375 129.863281 235.457031 130.578125 C 235.800781 131.296875 236.078125 132.039062 236.277344 132.808594 C 236.476562 133.578125 236.601562 134.359375 236.652344 135.15625 C 236.699219 135.949219 236.667969 136.742188 236.5625 137.53125 C 236.453125 138.320312 236.269531 139.089844 236.011719 139.84375 C 235.753906 140.597656 235.425781 141.316406 235.027344 142.003906 C 234.625 142.691406 234.164062 143.335938 233.636719 143.929688 C 233.113281 144.527344 232.535156 145.066406 231.90625 145.546875 C 231.273438 146.027344 230.601562 146.441406 229.890625 146.792969 C 229.179688 147.140625 228.441406 147.414062 227.671875 147.617188 C 226.90625 147.820312 226.128906 147.945312 225.339844 147.992188 C 224.546875 148.039062 223.761719 148.011719 222.976562 147.902344 C 222.191406 147.792969 221.425781 147.609375 220.675781 147.351562 C 219.929688 147.089844 219.210938 146.761719 218.527344 146.359375 C 217.84375 145.957031 217.207031 145.492188 216.613281 144.964844 C 216.019531 144.4375 215.484375 143.855469 215.007812 143.21875 C 214.527344 142.585938 214.113281 141.910156 213.769531 141.195312 C 213.421875 140.480469 213.148438 139.734375 212.945312 138.964844 C 212.746094 138.195312 212.621094 137.414062 212.574219 136.617188 C 212.527344 135.824219 212.554688 135.03125 212.664062 134.242188 C 212.769531 133.453125 212.953125 132.683594 213.210938 131.929688 C 213.46875 131.175781 213.796875 130.457031 214.199219 129.769531 C 214.597656 129.082031 215.058594 128.441406 215.585938 127.84375 C 216.109375 127.25 216.6875 126.710938 217.320312 126.226562 C 217.949219 125.746094 218.621094 125.332031 219.332031 124.984375 C 220.046875 124.632812 220.785156 124.359375 221.550781 124.15625 C 222.316406 123.953125 223.09375 123.828125 223.886719 123.78125 C 224.675781 123.734375 225.460938 123.765625 226.246094 123.871094 C 227.03125 123.980469 227.796875 124.164062 228.546875 124.421875 Z M 228.546875 124.421875 "/>
<path style=" stroke:none;fill-rule:nonzero;fill:rgb(0%,0%,0%);fill-opacity:1;" d="M 129.8125 230.3125 L 153.960938 203.664062 L 154.875 204.503906 L 130.726562 231.152344 Z M 129.8125 230.3125 "/>
<path style=" stroke:none;fill-rule:nonzero;fill:rgb(0%,0%,0%);fill-opacity:1;" d="M 130.285156 240.90625 L 154.433594 214.257812 L 155.351562 215.097656 L 131.203125 241.746094 Z M 130.285156 240.90625 "/>
<g clip-path="url(#clip1)" clip-rule="nonzero">
<path style=" stroke:none;fill-rule:nonzero;fill:rgb(0%,0%,0%);fill-opacity:1;" d="M 112.5 254.972656 L 147.152344 216.734375 L 148.070312 217.574219 L 113.417969 255.816406 Z M 112.5 254.972656 "/>
</g>
<path style=" stroke:none;fill-rule:nonzero;fill:rgb(0%,0%,0%);fill-opacity:1;" d="M 233.398438 191.582031 L 257.546875 164.929688 L 258.464844 165.769531 L 234.316406 192.421875 Z M 233.398438 191.582031 "/>
<path style=" stroke:none;fill-rule:nonzero;fill:rgb(0%,0%,0%);fill-opacity:1;" d="M 233.871094 202.175781 L 258.019531 175.523438 L 258.9375 176.363281 L 234.789062 203.015625 Z M 233.871094 202.175781 "/>
<path style=" stroke:none;fill-rule:nonzero;fill:rgb(0%,0%,0%);fill-opacity:1;" d="M 216.089844 216.242188 L 250.742188 178 L 251.660156 178.839844 L 217.007812 217.082031 Z M 216.089844 216.242188 "/>
</g>
</svg>
