<?xml version="1.0" encoding="UTF-8"?>
<svg xmlns="http://www.w3.org/2000/svg" xmlns:xlink="http://www.w3.org/1999/xlink" width="375pt" height="374.999991pt" viewBox="0 0 375 374.999991" version="1.2">
<defs>
<clipPath id="clip1">
  <path d="M 143 156 L 200 156 L 200 262.5 L 143 262.5 Z M 143 156 "/>
</clipPath>
<clipPath id="clip2">
  <path d="M 177 112.5 L 204 112.5 L 204 142 L 177 142 Z M 177 112.5 "/>
</clipPath>
<clipPath id="clip3">
  <path d="M 133.6875 193 L 142 193 L 142 203 L 133.6875 203 Z M 133.6875 193 "/>
</clipPath>
<clipPath id="clip4">
  <path d="M 186 165 L 241.6875 165 L 241.6875 224 L 186 224 Z M 186 165 "/>
</clipPath>
</defs>
<g id="surface1">
<g clip-path="url(#clip1)" clip-rule="nonzero">
<path style=" stroke:none;fill-rule:nonzero;fill:rgb(0%,0%,0%);fill-opacity:1;" d="M 185.3125 178.152344 L 179.617188 177.566406 L 168.234375 178.734375 L 166.042969 176.230469 L 167.332031 175.113281 L 168.941406 176.953125 L 178.761719 175.945312 L 178.761719 164.242188 L 180.472656 164.242188 L 180.472656 175.945312 L 185.582031 176.46875 C 186.265625 172.617188 187.328125 169.277344 188.574219 166.761719 L 189.167969 165.5625 L 190.480469 165.851562 C 192.246094 166.242188 194.316406 166.460938 196.644531 166.507812 C 195.0625 164.707031 193.617188 161.753906 192.171875 156.871094 C 191.59375 156.757812 191.0625 156.695312 190.636719 156.695312 L 168.597656 156.695312 C 168.171875 156.695312 167.640625 156.757812 167.058594 156.871094 C 163.667969 168.335938 160.273438 169.148438 155.097656 169.480469 C 154.3125 169.53125 153.488281 169.585938 152.617188 169.707031 C 150.417969 173.386719 148.210938 178.101562 146.15625 184.148438 C 146.445312 184.105469 146.765625 184.078125 147.125 184.078125 C 149.566406 184.078125 153.125 185.25 154.859375 186.890625 C 157.113281 180.296875 159.445312 175.757812 161.558594 172.628906 L 163.992188 197.789062 L 162.636719 214.320312 L 155.90625 207.773438 L 158.636719 205.007812 L 155.785156 202.234375 L 151.753906 206.316406 C 151.078125 208.335938 149.4375 209.878906 147.417969 210.457031 L 147.546875 210.582031 L 143.40625 214.777344 L 146.257812 217.550781 L 148.984375 214.789062 L 158.578125 224.125 L 159.371094 224.890625 C 159.746094 229.421875 163.421875 233.007812 168.007812 233.296875 L 169.339844 234.59375 C 169.09375 234.609375 168.847656 234.632812 168.601562 234.632812 C 165.726562 234.632812 163.121094 233.484375 161.214844 231.632812 L 159.324219 254.652344 C 159.007812 258.507812 161.898438 261.886719 165.78125 262.199219 C 169.660156 262.515625 173.066406 259.644531 173.382812 255.789062 L 174.695312 239.808594 L 185.394531 250.21875 L 185.851562 255.789062 C 186.167969 259.644531 189.570312 262.515625 193.453125 262.199219 C 197.335938 261.886719 200.226562 258.507812 199.910156 254.652344 L 198.019531 231.632812 C 196.109375 233.484375 193.503906 234.632812 190.632812 234.632812 C 188.085938 234.632812 185.746094 233.730469 183.917969 232.238281 L 184.167969 235.277344 L 177.882812 229.160156 L 176.898438 228.203125 C 177.515625 226.972656 177.871094 225.589844 177.871094 224.121094 C 177.871094 222.289062 177.324219 220.582031 176.390625 219.148438 L 177.621094 204.191406 L 181.613281 204.191406 L 182.839844 219.148438 C 181.910156 220.582031 181.363281 222.289062 181.363281 224.121094 C 181.363281 229.207031 185.511719 233.328125 190.632812 233.328125 C 195.753906 233.328125 199.902344 229.207031 199.902344 224.121094 C 199.902344 223.320312 199.789062 222.546875 199.59375 221.804688 C 185.925781 209.460938 183.433594 191.269531 185.3125 178.152344 Z M 149.785156 213.976562 L 152.246094 211.484375 L 195.722656 253.796875 L 189.21875 252.355469 Z M 196.121094 253.390625 L 152.644531 211.078125 L 155.109375 208.582031 L 194.542969 246.960938 Z M 196.121094 253.390625 "/>
</g>
<path style=" stroke:none;fill-rule:nonzero;fill:rgb(0%,0%,0%);fill-opacity:1;" d="M 166.066406 155.59375 C 166.066406 155.59375 151.792969 151.125 147.042969 170.101562 C 156.601562 165.214844 160.980469 173.625 166.066406 155.59375 Z M 166.066406 155.59375 "/>
<path style=" stroke:none;fill-rule:nonzero;fill:rgb(0%,0%,0%);fill-opacity:1;" d="M 198.5 166.511719 C 202.769531 166.4375 207.132812 165.851562 210.574219 165.25 C 204.820312 151.945312 193.167969 155.59375 193.167969 155.59375 C 194.945312 161.902344 196.640625 164.972656 198.5 166.511719 Z M 198.5 166.511719 "/>
<g clip-path="url(#clip2)" clip-rule="nonzero">
<path style=" stroke:none;fill-rule:nonzero;fill:rgb(0%,0%,0%);fill-opacity:1;" d="M 192.753906 129.75 C 193.199219 133.5 193.882812 137.460938 194.542969 140.863281 C 198.378906 142.640625 203.710938 141.722656 203.710938 141.722656 C 203.710938 141.722656 198.648438 139.578125 197.230469 132.328125 C 195.257812 122.246094 194.953125 112.5 185.667969 112.671875 C 180.101562 112.777344 178 116.382812 177.210938 119.253906 C 178.085938 119.097656 178.902344 119.023438 179.605469 119.015625 C 183.730469 119.050781 191.75 121.34375 192.753906 129.75 Z M 192.753906 129.75 "/>
</g>
<path style=" stroke:none;fill-rule:nonzero;fill:rgb(0%,0%,0%);fill-opacity:1;" d="M 178.191406 141.390625 L 170.71875 139.527344 L 171.414062 136.78125 L 179.5625 138.8125 L 187.824219 136.777344 L 188.507812 139.527344 L 181.042969 141.367188 L 181.042969 153.007812 C 186.25 152.5625 195.179688 150.082031 195.179688 150.082031 C 195.179688 150.082031 192.582031 139.390625 191.449219 129.902344 C 190.316406 120.414062 179.617188 120.316406 179.617188 120.316406 C 179.617188 120.316406 168.914062 120.414062 167.78125 129.902344 C 166.648438 139.390625 164.050781 150.082031 164.050781 150.082031 C 164.050781 150.082031 172.980469 152.5625 178.191406 153.007812 Z M 178.191406 141.390625 "/>
<g clip-path="url(#clip3)" clip-rule="nonzero">
<path style=" stroke:none;fill-rule:nonzero;fill:rgb(0%,0%,0%);fill-opacity:1;" d="M 140.8125 195.886719 L 140.882812 195.820312 C 140.988281 195.382812 141.089844 194.945312 141.199219 194.515625 L 139.65625 193.015625 L 133.800781 198.949219 L 135.835938 200.933594 L 136.714844 200.042969 L 139.398438 202.65625 C 139.855469 200.339844 140.34375 198.097656 140.855469 195.929688 Z M 140.8125 195.886719 "/>
</g>
<path style=" stroke:none;fill-rule:nonzero;fill:rgb(0%,0%,0%);fill-opacity:1;" d="M 150.679688 205.273438 C 151.816406 199.464844 153.136719 194.144531 154.609375 189.46875 C 155.453125 186.78125 145.65625 183.738281 144.808594 186.425781 C 143.222656 191.464844 141.808594 197.152344 140.601562 203.335938 C 140.0625 206.101562 141.878906 208.773438 144.664062 209.3125 C 144.992188 209.375 145.324219 209.40625 145.644531 209.40625 C 148.054688 209.402344 150.207031 207.710938 150.679688 205.273438 Z M 150.679688 205.273438 "/>
<g clip-path="url(#clip4)" clip-rule="nonzero">
<path style=" stroke:none;fill-rule:nonzero;fill:rgb(0%,0%,0%);fill-opacity:1;" d="M 217.617188 165.507812 C 217.617188 165.507812 200.867188 169.886719 190.109375 167.511719 C 184.65625 178.511719 182.6875 208.082031 204.605469 223.636719 C 231.097656 218.769531 241.925781 191.15625 241.683594 178.898438 C 230.925781 176.523438 217.617188 165.507812 217.617188 165.507812 Z M 205.585938 219.257812 C 188.476562 205.898438 189.109375 182.691406 192.679688 171.996094 C 201.582031 172.945312 212.238281 170.878906 216.636719 169.886719 C 220.199219 172.636719 228.972656 178.996094 237.4375 181.878906 C 236.113281 193.070312 226.785156 214.359375 205.585938 219.257812 Z M 205.585938 219.257812 "/>
</g>
<path style=" stroke:none;fill-rule:nonzero;fill:rgb(0%,0%,0%);fill-opacity:1;" d="M 193.644531 173.449219 C 190.5 184.039062 190.363281 205.203125 205.914062 217.792969 C 225.367188 212.929688 234.273438 193.707031 235.945312 182.789062 C 228.003906 179.835938 220.046875 174.195312 216.308594 171.351562 C 211.714844 172.355469 202.097656 174.117188 193.644531 173.449219 Z M 193.644531 173.449219 "/>
</g>
</svg>
