<?xml version="1.0" encoding="UTF-8"?>
<svg xmlns="http://www.w3.org/2000/svg" xmlns:xlink="http://www.w3.org/1999/xlink" width="390pt" height="389.999986pt" viewBox="0 0 390 389.999986" version="1.2">
<defs>
<clipPath id="clip1">
  <path d="M 46.085938 44.824219 L 343.765625 44.824219 L 343.765625 350.648438 L 46.085938 350.648438 Z M 46.085938 44.824219 "/>
</clipPath>
</defs>
<g id="surface1">
<g clip-path="url(#clip1)" clip-rule="nonzero">
<path style=" stroke:none;fill-rule:nonzero;fill:rgb(0%,0%,0%);fill-opacity:1;" d="M 244.496094 186.070312 L 244.496094 100.984375 C 244.496094 92.261719 241.023438 83.867188 234.746094 77.777344 L 206.492188 49.636719 C 204.964844 48.109375 203.148438 46.898438 201.148438 46.074219 C 199.152344 45.25 197.007812 44.824219 194.84375 44.824219 C 192.679688 44.824219 190.539062 45.25 188.539062 46.074219 C 186.539062 46.898438 184.722656 48.109375 183.195312 49.636719 L 155.105469 77.613281 C 148.828125 83.867188 145.359375 92.261719 145.359375 100.984375 L 145.359375 120.238281 L 79.265625 120.238281 C 61.089844 120.238281 46.222656 135.050781 46.222656 153.15625 L 46.222656 317.730469 C 46.222656 335.835938 61.089844 350.648438 79.265625 350.648438 L 310.585938 350.648438 C 328.761719 350.648438 343.632812 335.835938 343.632812 317.730469 L 343.632812 218.984375 C 343.632812 200.882812 328.761719 186.070312 310.585938 186.070312 Z M 112.3125 317.730469 L 79.265625 317.730469 L 79.265625 284.816406 L 112.3125 284.816406 Z M 112.3125 251.902344 L 79.265625 251.902344 L 79.265625 218.984375 L 112.3125 218.984375 Z M 112.3125 186.070312 L 79.265625 186.070312 L 79.265625 153.15625 L 112.3125 153.15625 Z M 211.449219 317.730469 L 178.402344 317.730469 L 178.402344 284.816406 L 211.449219 284.816406 Z M 211.449219 251.902344 L 178.402344 251.902344 L 178.402344 218.984375 L 211.449219 218.984375 Z M 211.449219 186.070312 L 178.402344 186.070312 L 178.402344 153.15625 L 211.449219 153.15625 Z M 211.449219 120.238281 L 178.402344 120.238281 L 178.402344 87.324219 L 211.449219 87.324219 Z M 310.585938 317.730469 L 277.539062 317.730469 L 277.539062 284.816406 L 310.585938 284.816406 Z M 310.585938 251.902344 L 277.539062 251.902344 L 277.539062 218.984375 L 310.585938 218.984375 Z M 310.585938 251.902344 "/>
</g>
</g>
</svg>
