<?xml version="1.0" encoding="UTF-8"?>
<svg xmlns="http://www.w3.org/2000/svg" xmlns:xlink="http://www.w3.org/1999/xlink" width="224.87999pt" height="225pt" viewBox="0 0 224.87999 225" version="1.2">
<defs>
<clipPath id="clip1">
  <path d="M 81 120 L 159 120 L 159 222.605469 L 81 222.605469 Z M 81 120 "/>
</clipPath>
<clipPath id="clip2">
  <path d="M 54.875 3 L 185.304688 3 L 185.304688 134 L 54.875 134 Z M 54.875 3 "/>
</clipPath>
</defs>
<g id="surface1">
<g clip-path="url(#clip1)" clip-rule="nonzero">
<path style=" stroke:none;fill-rule:evenodd;fill:rgb(87.449646%,10.5896%,19.219971%);fill-opacity:1;" d="M 158.742188 120.632812 L 158.742188 222.511719 L 120.089844 183.90625 L 81.4375 222.511719 L 81.4375 120.632812 C 92.289062 128.582031 105.621094 133.328125 120.089844 133.328125 C 134.558594 133.328125 147.890625 128.582031 158.742188 120.632812 Z M 158.742188 120.632812 "/>
</g>
<path style=" stroke:none;fill-rule:evenodd;fill:rgb(87.449646%,10.5896%,19.219971%);fill-opacity:1;" d="M 158.742188 120.632812 L 158.742188 124.347656 C 147.890625 133.84375 134.558594 140.449219 120.089844 142.410156 C 105.621094 144.476562 92.289062 141.585938 81.4375 135.1875 L 81.4375 120.632812 C 92.289062 128.582031 105.621094 133.328125 120.089844 133.328125 C 134.558594 133.328125 147.890625 128.582031 158.742188 120.632812 Z M 158.742188 120.632812 "/>
<g clip-path="url(#clip2)" clip-rule="nonzero">
<path style=" stroke:none;fill-rule:nonzero;fill:rgb(100%,76.858521%,18.03894%);fill-opacity:1;" d="M 185.304688 68.195312 C 185.304688 69.261719 185.277344 70.328125 185.226562 71.394531 C 185.175781 72.457031 185.097656 73.519531 184.992188 74.582031 C 184.886719 75.640625 184.757812 76.699219 184.597656 77.753906 C 184.441406 78.808594 184.261719 79.859375 184.050781 80.902344 C 183.84375 81.949219 183.609375 82.988281 183.351562 84.023438 C 183.089844 85.058594 182.808594 86.082031 182.496094 87.105469 C 182.1875 88.125 181.851562 89.136719 181.492188 90.140625 C 181.132812 91.144531 180.75 92.136719 180.339844 93.121094 C 179.933594 94.105469 179.5 95.082031 179.042969 96.042969 C 178.585938 97.007812 178.109375 97.960938 177.605469 98.898438 C 177.101562 99.839844 176.574219 100.765625 176.027344 101.679688 C 175.476562 102.59375 174.90625 103.496094 174.316406 104.382812 C 173.722656 105.269531 173.105469 106.140625 172.472656 106.996094 C 171.835938 107.851562 171.179688 108.691406 170.503906 109.515625 C 169.824219 110.339844 169.128906 111.148438 168.410156 111.9375 C 167.695312 112.726562 166.960938 113.5 166.203125 114.25 C 165.449219 115.003906 164.675781 115.742188 163.886719 116.457031 C 163.09375 117.171875 162.289062 117.867188 161.460938 118.542969 C 160.636719 119.21875 159.796875 119.875 158.9375 120.511719 C 158.082031 121.144531 157.210938 121.757812 156.320312 122.351562 C 155.433594 122.945312 154.53125 123.515625 153.617188 124.0625 C 152.703125 124.609375 151.773438 125.136719 150.832031 125.636719 C 149.890625 126.140625 148.9375 126.621094 147.972656 127.074219 C 147.007812 127.53125 146.03125 127.960938 145.046875 128.371094 C 144.0625 128.777344 143.066406 129.160156 142.0625 129.519531 C 141.054688 129.878906 140.042969 130.214844 139.019531 130.523438 C 138 130.832031 136.972656 131.117188 135.9375 131.375 C 134.902344 131.636719 133.859375 131.867188 132.8125 132.078125 C 131.765625 132.285156 130.714844 132.46875 129.660156 132.625 C 128.605469 132.78125 127.542969 132.910156 126.484375 133.015625 C 125.421875 133.121094 124.355469 133.199219 123.289062 133.25 C 122.222656 133.300781 121.15625 133.328125 120.089844 133.328125 C 119.023438 133.328125 117.957031 133.300781 116.890625 133.25 C 115.824219 133.199219 114.761719 133.121094 113.699219 133.015625 C 112.636719 132.910156 111.578125 132.78125 110.519531 132.625 C 109.464844 132.46875 108.414062 132.285156 107.367188 132.078125 C 106.320312 131.867188 105.28125 131.636719 104.246094 131.375 C 103.207031 131.117188 102.179688 130.832031 101.160156 130.523438 C 100.136719 130.214844 99.125 129.878906 98.121094 129.519531 C 97.113281 129.160156 96.121094 128.777344 95.132812 128.371094 C 94.148438 127.960938 93.171875 127.53125 92.207031 127.074219 C 91.242188 126.621094 90.289062 126.140625 89.347656 125.636719 C 88.40625 125.136719 87.476562 124.609375 86.5625 124.0625 C 85.648438 123.515625 84.746094 122.945312 83.859375 122.351562 C 82.972656 121.757812 82.097656 121.144531 81.242188 120.511719 C 80.382812 119.875 79.542969 119.21875 78.71875 118.542969 C 77.894531 117.867188 77.085938 117.171875 76.292969 116.457031 C 75.503906 115.742188 74.730469 115.003906 73.976562 114.25 C 73.222656 113.5 72.484375 112.726562 71.769531 111.9375 C 71.050781 111.148438 70.355469 110.339844 69.679688 109.515625 C 69 108.691406 68.34375 107.851562 67.707031 106.996094 C 67.074219 106.140625 66.457031 105.269531 65.867188 104.382812 C 65.273438 103.496094 64.703125 102.59375 64.152344 101.679688 C 63.605469 100.765625 63.078125 99.839844 62.574219 98.898438 C 62.074219 97.960938 61.59375 97.007812 61.136719 96.042969 C 60.679688 95.082031 60.246094 94.105469 59.839844 93.121094 C 59.429688 92.136719 59.046875 91.144531 58.6875 90.140625 C 58.328125 89.136719 57.992188 88.125 57.683594 87.105469 C 57.375 86.082031 57.089844 85.058594 56.828125 84.023438 C 56.570312 82.988281 56.335938 81.949219 56.128906 80.902344 C 55.917969 79.859375 55.738281 78.808594 55.582031 77.753906 C 55.425781 76.699219 55.292969 75.640625 55.1875 74.582031 C 55.085938 73.519531 55.007812 72.457031 54.953125 71.394531 C 54.902344 70.328125 54.875 69.261719 54.875 68.195312 C 54.875 67.132812 54.902344 66.066406 54.953125 65 C 55.007812 63.9375 55.085938 62.875 55.1875 61.8125 C 55.292969 60.753906 55.425781 59.695312 55.582031 58.640625 C 55.738281 57.585938 55.917969 56.535156 56.128906 55.492188 C 56.335938 54.445312 56.570312 53.40625 56.828125 52.371094 C 57.089844 51.335938 57.375 50.308594 57.683594 49.289062 C 57.992188 48.269531 58.328125 47.257812 58.6875 46.253906 C 59.046875 45.25 59.429688 44.257812 59.839844 43.273438 C 60.246094 42.289062 60.679688 41.3125 61.136719 40.351562 C 61.59375 39.386719 62.074219 38.433594 62.574219 37.496094 C 63.078125 36.554688 63.605469 35.628906 64.152344 34.710938 C 64.703125 33.796875 65.273438 32.898438 65.867188 32.011719 C 66.457031 31.125 67.074219 30.253906 67.707031 29.398438 C 68.34375 28.542969 69 27.703125 69.679688 26.878906 C 70.355469 26.054688 71.050781 25.246094 71.769531 24.457031 C 72.484375 23.667969 73.222656 22.894531 73.976562 22.140625 C 74.730469 21.386719 75.503906 20.652344 76.292969 19.9375 C 77.085938 19.222656 77.894531 18.527344 78.71875 17.851562 C 79.542969 17.171875 80.382812 16.519531 81.242188 15.882812 C 82.097656 15.25 82.972656 14.632812 83.859375 14.042969 C 84.746094 13.449219 85.648438 12.878906 86.5625 12.332031 C 87.476562 11.785156 88.40625 11.257812 89.347656 10.757812 C 90.289062 10.253906 91.242188 9.773438 92.207031 9.320312 C 93.171875 8.863281 94.148438 8.429688 95.132812 8.023438 C 96.121094 7.617188 97.113281 7.230469 98.121094 6.871094 C 99.125 6.515625 100.136719 6.179688 101.160156 5.871094 C 102.179688 5.5625 103.207031 5.277344 104.246094 5.015625 C 105.28125 4.757812 106.320312 4.523438 107.367188 4.316406 C 108.414062 4.109375 109.464844 3.925781 110.519531 3.769531 C 111.578125 3.613281 112.636719 3.484375 113.699219 3.378906 C 114.761719 3.273438 115.824219 3.195312 116.890625 3.144531 C 117.957031 3.09375 119.023438 3.066406 120.089844 3.066406 C 121.15625 3.066406 122.222656 3.09375 123.289062 3.144531 C 124.355469 3.195312 125.421875 3.273438 126.484375 3.378906 C 127.542969 3.484375 128.605469 3.613281 129.660156 3.769531 C 130.714844 3.925781 131.765625 4.109375 132.8125 4.316406 C 133.859375 4.523438 134.902344 4.757812 135.9375 5.015625 C 136.972656 5.277344 138 5.5625 139.019531 5.871094 C 140.042969 6.179688 141.054688 6.515625 142.0625 6.871094 C 143.066406 7.230469 144.0625 7.617188 145.046875 8.023438 C 146.03125 8.429688 147.007812 8.863281 147.972656 9.320312 C 148.9375 9.773438 149.890625 10.253906 150.832031 10.757812 C 151.773438 11.257812 152.703125 11.785156 153.617188 12.332031 C 154.53125 12.878906 155.433594 13.449219 156.320312 14.042969 C 157.210938 14.632812 158.082031 15.25 158.9375 15.882812 C 159.796875 16.519531 160.636719 17.171875 161.460938 17.851562 C 162.289062 18.527344 163.09375 19.222656 163.886719 19.9375 C 164.675781 20.652344 165.449219 21.386719 166.203125 22.140625 C 166.960938 22.894531 167.695312 23.667969 168.410156 24.457031 C 169.128906 25.246094 169.824219 26.054688 170.503906 26.878906 C 171.179688 27.703125 171.835938 28.542969 172.472656 29.398438 C 173.105469 30.253906 173.722656 31.125 174.316406 32.011719 C 174.90625 32.898438 175.476562 33.796875 176.027344 34.710938 C 176.574219 35.628906 177.101562 36.554688 177.605469 37.496094 C 178.109375 38.433594 178.585938 39.386719 179.042969 40.351562 C 179.5 41.3125 179.933594 42.289062 180.339844 43.273438 C 180.75 44.257812 181.132812 45.25 181.492188 46.253906 C 181.851562 47.257812 182.1875 48.269531 182.496094 49.289062 C 182.808594 50.308594 183.089844 51.335938 183.351562 52.371094 C 183.609375 53.40625 183.84375 54.445312 184.050781 55.492188 C 184.261719 56.535156 184.441406 57.585938 184.597656 58.640625 C 184.757812 59.695312 184.886719 60.753906 184.992188 61.8125 C 185.097656 62.875 185.175781 63.9375 185.226562 65 C 185.277344 66.066406 185.304688 67.132812 185.304688 68.195312 Z M 185.304688 68.195312 "/>
</g>
<path style=" stroke:none;fill-rule:evenodd;fill:rgb(100%,98.429871%,76.078796%);fill-opacity:1;" d="M 161.742188 18.136719 C 169.800781 24.742188 176.210938 33.308594 180.242188 43.113281 L 165.253906 51.683594 C 161.636719 41.566406 154.609375 33.101562 145.515625 27.425781 Z M 83.195312 99.058594 L 68.207031 107.730469 C 62.007812 99.472656 57.5625 89.769531 55.804688 79.136719 L 72.03125 69.847656 C 72.339844 80.996094 76.476562 91.113281 83.195312 99.058594 Z M 183.03125 50.960938 C 183.960938 54.570312 184.582031 58.183594 184.996094 61.902344 L 168.046875 71.707031 C 168.148438 70.570312 168.148438 69.332031 168.148438 68.195312 C 168.148438 65.410156 167.941406 62.625 167.527344 59.941406 Z M 99.109375 111.445312 L 82.160156 121.25 C 79.164062 119.085938 76.371094 116.605469 73.789062 114.027344 L 89.1875 105.046875 C 92.289062 107.625 95.597656 109.691406 99.109375 111.445312 Z M 99.109375 111.445312 "/>
<path style=" stroke:none;fill-rule:nonzero;fill:rgb(100%,76.858521%,18.03894%);fill-opacity:1;" d="M 168.253906 68.195312 C 168.253906 69.773438 168.175781 71.34375 168.019531 72.910156 C 167.867188 74.480469 167.632812 76.035156 167.328125 77.582031 C 167.019531 79.125 166.636719 80.652344 166.179688 82.160156 C 165.71875 83.667969 165.191406 85.148438 164.585938 86.605469 C 163.984375 88.058594 163.308594 89.480469 162.566406 90.871094 C 161.820312 92.261719 161.011719 93.609375 160.136719 94.921875 C 159.257812 96.230469 158.320312 97.492188 157.320312 98.710938 C 156.320312 99.929688 155.261719 101.09375 154.144531 102.210938 C 153.03125 103.324219 151.863281 104.378906 150.644531 105.378906 C 149.425781 106.378906 148.160156 107.316406 146.847656 108.191406 C 145.535156 109.066406 144.183594 109.875 142.792969 110.617188 C 141.402344 111.359375 139.976562 112.03125 138.519531 112.636719 C 137.0625 113.238281 135.582031 113.769531 134.070312 114.226562 C 132.5625 114.683594 131.035156 115.066406 129.484375 115.375 C 127.9375 115.679688 126.378906 115.910156 124.8125 116.066406 C 123.242188 116.21875 121.667969 116.296875 120.089844 116.296875 C 118.511719 116.296875 116.9375 116.21875 115.371094 116.066406 C 113.800781 115.910156 112.242188 115.679688 110.695312 115.375 C 109.148438 115.066406 107.617188 114.683594 106.109375 114.226562 C 104.601562 113.769531 103.117188 113.238281 101.660156 112.636719 C 100.203125 112.03125 98.777344 111.359375 97.386719 110.617188 C 95.996094 109.875 94.644531 109.066406 93.332031 108.191406 C 92.019531 107.316406 90.753906 106.378906 89.535156 105.378906 C 88.316406 104.378906 87.148438 103.324219 86.035156 102.210938 C 84.917969 101.09375 83.859375 99.929688 82.859375 98.710938 C 81.859375 97.492188 80.921875 96.230469 80.042969 94.921875 C 79.167969 93.609375 78.359375 92.261719 77.613281 90.871094 C 76.871094 89.480469 76.199219 88.058594 75.59375 86.605469 C 74.992188 85.148438 74.460938 83.667969 74.003906 82.160156 C 73.542969 80.652344 73.160156 79.125 72.855469 77.582031 C 72.546875 76.035156 72.316406 74.480469 72.160156 72.910156 C 72.003906 71.34375 71.929688 69.773438 71.929688 68.195312 C 71.929688 66.621094 72.003906 65.050781 72.160156 63.484375 C 72.316406 61.914062 72.546875 60.359375 72.855469 58.8125 C 73.160156 57.269531 73.542969 55.742188 74.003906 54.234375 C 74.460938 52.726562 74.992188 51.246094 75.59375 49.789062 C 76.199219 48.335938 76.871094 46.914062 77.613281 45.523438 C 78.359375 44.132812 79.167969 42.785156 80.042969 41.472656 C 80.921875 40.164062 81.859375 38.898438 82.859375 37.683594 C 83.859375 36.464844 84.917969 35.300781 86.035156 34.183594 C 87.148438 33.070312 88.316406 32.015625 89.535156 31.015625 C 90.753906 30.015625 92.019531 29.078125 93.332031 28.203125 C 94.644531 27.328125 95.996094 26.519531 97.386719 25.777344 C 98.777344 25.035156 100.203125 24.359375 101.660156 23.757812 C 103.117188 23.15625 104.601562 22.625 106.109375 22.167969 C 107.617188 21.710938 109.148438 21.328125 110.695312 21.019531 C 112.242188 20.714844 113.800781 20.484375 115.371094 20.328125 C 116.9375 20.175781 118.511719 20.097656 120.089844 20.097656 C 121.667969 20.097656 123.242188 20.175781 124.8125 20.328125 C 126.378906 20.484375 127.9375 20.714844 129.484375 21.019531 C 131.035156 21.328125 132.5625 21.710938 134.070312 22.167969 C 135.582031 22.625 137.0625 23.15625 138.519531 23.757812 C 139.976562 24.359375 141.402344 25.035156 142.792969 25.777344 C 144.183594 26.519531 145.535156 27.328125 146.847656 28.203125 C 148.160156 29.078125 149.425781 30.015625 150.644531 31.015625 C 151.863281 32.015625 153.03125 33.070312 154.144531 34.183594 C 155.261719 35.300781 156.320312 36.464844 157.320312 37.683594 C 158.320312 38.898438 159.257812 40.164062 160.136719 41.472656 C 161.011719 42.785156 161.820312 44.132812 162.566406 45.523438 C 163.308594 46.914062 163.984375 48.335938 164.585938 49.789062 C 165.191406 51.246094 165.71875 52.726562 166.179688 54.234375 C 166.636719 55.742188 167.019531 57.269531 167.328125 58.8125 C 167.632812 60.359375 167.867188 61.914062 168.019531 63.484375 C 168.175781 65.050781 168.253906 66.621094 168.253906 68.195312 Z M 168.253906 68.195312 "/>
<path style=" stroke:none;fill-rule:nonzero;fill:rgb(100%,59.999084%,0%);fill-opacity:1;" d="M 120.089844 16.277344 C 134.457031 16.277344 147.375 22.058594 156.78125 31.449219 C 166.183594 40.84375 172.078125 53.847656 172.078125 68.195312 C 172.078125 82.542969 166.183594 95.445312 156.78125 104.839844 C 147.375 114.234375 134.457031 120.117188 120.089844 120.117188 C 105.722656 120.117188 92.703125 114.234375 83.296875 104.839844 C 73.890625 95.445312 68.105469 82.542969 68.105469 68.195312 C 68.105469 53.847656 73.890625 40.84375 83.296875 31.449219 C 92.703125 22.058594 105.722656 16.277344 120.089844 16.277344 Z M 151.40625 36.921875 C 143.34375 28.972656 132.285156 24.019531 120.089844 24.019531 C 107.894531 24.019531 96.835938 28.972656 88.773438 36.921875 C 80.816406 44.972656 75.855469 56.015625 75.855469 68.195312 C 75.855469 80.378906 80.816406 91.421875 88.773438 99.472656 C 96.835938 107.421875 107.894531 112.375 120.089844 112.375 C 132.285156 112.375 143.34375 107.421875 151.40625 99.472656 C 159.363281 91.421875 164.324219 80.378906 164.324219 68.195312 C 164.324219 56.015625 159.363281 44.972656 151.40625 36.921875 Z M 151.40625 36.921875 "/>
<path style=" stroke:none;fill-rule:evenodd;fill:rgb(100%,98.429871%,76.078796%);fill-opacity:1;" d="M 120.089844 32.378906 L 131.664062 51.269531 L 153.265625 56.535156 L 138.898438 73.359375 L 140.554688 95.445312 L 120.089844 86.984375 L 99.625 95.445312 L 101.28125 73.359375 L 86.914062 56.535156 L 108.515625 51.269531 Z M 120.089844 32.378906 "/>
</g>
</svg>
