<?xml version="1.0" encoding="UTF-8"?>
<svg xmlns="http://www.w3.org/2000/svg" xmlns:xlink="http://www.w3.org/1999/xlink" width="224.87999pt" height="225pt" viewBox="0 0 224.87999 225" version="1.2">
<g id="surface1">
<path style=" stroke:none;fill-rule:evenodd;fill:rgb(20.388794%,18.03894%,22.749329%);fill-opacity:1;" d="M 64.355469 191.375 C 63.789062 191.984375 62.53125 192.808594 61.664062 193.113281 L 24.710938 208.351562 C 18.285156 211 15.242188 207.917969 17.894531 201.535156 L 33.089844 164.625 C 33.4375 163.714844 34.261719 162.542969 34.871094 161.847656 L 175.257812 21.503906 C 181.726562 15.035156 192.320312 15.035156 198.835938 21.546875 L 204.652344 27.410156 C 211.210938 33.96875 211.210938 44.476562 204.742188 51.03125 L 198.792969 56.894531 L 204.699219 62.757812 C 207.953125 66.058594 207.910156 71.398438 204.742188 74.609375 L 166.398438 112.953125 C 164.75 114.558594 162.054688 114.515625 160.492188 112.953125 C 158.84375 111.304688 158.929688 108.609375 160.492188 106.960938 L 198.792969 68.707031 L 192.929688 62.800781 Z M 181.117188 27.453125 L 175.214844 33.316406 L 192.929688 51.03125 L 198.792969 45.125 C 202.046875 41.871094 202.09375 36.660156 198.792969 33.316406 L 192.886719 27.453125 C 189.671875 24.195312 184.375 24.195312 181.117188 27.453125 Z M 45.511719 163.019531 L 63.226562 180.734375 L 187.023438 56.894531 L 169.351562 39.265625 Z M 56.800781 186.121094 L 40.167969 169.488281 L 28.3125 197.929688 Z M 56.800781 186.121094 "/>
</g>
</svg>
