<?xml version="1.0" encoding="UTF-8"?>
<svg xmlns="http://www.w3.org/2000/svg" xmlns:xlink="http://www.w3.org/1999/xlink" width="224.87999pt" height="225pt" viewBox="0 0 224.87999 225" version="1.2">
<defs>
<clipPath id="clip1">
  <path d="M 8.765625 8.269531 L 216.148438 8.269531 L 216.148438 215.652344 L 8.765625 215.652344 Z M 8.765625 8.269531 "/>
</clipPath>
</defs>
<g id="surface1">
<path style=" stroke:none;fill-rule:nonzero;fill:rgb(100%,100%,100%);fill-opacity:1;" d="M 12.074219 11.582031 L 212.835938 11.582031 L 212.835938 212.339844 L 12.074219 212.339844 Z M 12.074219 11.582031 "/>
<path style=" stroke:none;fill-rule:nonzero;fill:rgb(81.959534%,82.348633%,82.348633%);fill-opacity:1;" d="M 21.4375 20.46875 L 21.066406 162.375 L 20.960938 202.976562 L 203.472656 203.453125 L 203.546875 174.070312 L 203.945312 20.945312 Z M 21.4375 20.46875 "/>
<g clip-path="url(#clip1)" clip-rule="nonzero">
<path style=" stroke:none;fill-rule:nonzero;fill:rgb(81.959534%,82.348633%,82.348633%);fill-opacity:1;" d="M 210.046875 14.875 L 209.539062 209.554688 L 14.863281 209.046875 L 15.371094 14.371094 L 210.046875 14.875 M 216.148438 8.808594 L 210.0625 8.792969 L 15.386719 8.285156 L 9.304688 8.269531 L 9.289062 14.355469 L 8.78125 209.03125 L 8.765625 215.113281 L 14.847656 215.128906 L 209.523438 215.632812 L 215.605469 215.652344 L 215.625 209.566406 L 216.128906 14.890625 Z M 216.148438 8.808594 "/>
</g>
<path style=" stroke:none;fill-rule:nonzero;fill:rgb(44.309998%,44.709778%,45.098877%);fill-opacity:1;" d="M 174.636719 158.890625 C 153.195312 149.839844 134.609375 142.210938 134.609375 142.210938 C 134.609375 142.210938 134.609375 132.691406 134.609375 126.015625 C 134.609375 119.34375 145.574219 112.191406 145.574219 84.554688 C 145.574219 57.984375 133.21875 43.355469 113.636719 42.246094 C 113.636719 42.222656 113.636719 42.167969 113.636719 42.144531 C 113.230469 42.144531 112.847656 42.183594 112.453125 42.199219 C 112.046875 42.183594 111.667969 42.144531 111.257812 42.144531 C 111.257812 42.167969 111.257812 42.222656 111.257812 42.246094 C 91.675781 43.355469 79.324219 57.984375 79.324219 84.554688 C 79.324219 112.191406 90.285156 119.34375 90.285156 126.015625 C 90.285156 132.6875 90.285156 142.210938 90.285156 142.210938 C 90.285156 142.210938 71.703125 149.839844 50.257812 158.890625 C 28.808594 167.957031 21.195312 180.808594 21.195312 187.964844 C 21.195312 195.113281 21.195312 202.734375 21.195312 202.734375 L 203.707031 202.734375 C 203.707031 202.734375 203.707031 195.113281 203.707031 187.964844 C 203.707031 180.8125 196.070312 167.957031 174.636719 158.890625 Z M 174.636719 158.890625 "/>
</g>
</svg>
