<?xml version="1.0" encoding="UTF-8"?>
<svg xmlns="http://www.w3.org/2000/svg" xmlns:xlink="http://www.w3.org/1999/xlink" width="224.87999pt" height="225pt" viewBox="0 0 224.87999 225" version="1.2">
<g id="surface1">
<path style=" stroke:none;fill-rule:nonzero;fill:rgb(28.62854%,30.979919%,33.729553%);fill-opacity:1;" d="M 112.441406 2.765625 C 114.234375 2.765625 116.03125 2.808594 117.824219 2.898438 C 119.617188 2.984375 121.410156 3.117188 123.195312 3.292969 C 124.984375 3.46875 126.765625 3.6875 128.542969 3.953125 C 130.316406 4.214844 132.085938 4.523438 133.847656 4.871094 C 135.609375 5.222656 137.363281 5.617188 139.105469 6.054688 C 140.84375 6.488281 142.574219 6.96875 144.292969 7.488281 C 146.011719 8.011719 147.71875 8.574219 149.410156 9.179688 C 151.101562 9.785156 152.773438 10.429688 154.433594 11.117188 C 156.09375 11.804688 157.734375 12.53125 159.359375 13.300781 C 160.980469 14.066406 162.585938 14.875 164.167969 15.722656 C 165.753906 16.570312 167.316406 17.453125 168.855469 18.375 C 170.394531 19.300781 171.914062 20.261719 173.40625 21.257812 C 174.898438 22.257812 176.367188 23.289062 177.808594 24.359375 C 179.25 25.429688 180.667969 26.535156 182.054688 27.671875 C 183.445312 28.8125 184.804688 29.984375 186.132812 31.191406 C 187.464844 32.398438 188.765625 33.636719 190.035156 34.90625 C 191.304688 36.175781 192.542969 37.476562 193.75 38.804688 C 194.953125 40.136719 196.128906 41.496094 197.265625 42.882812 C 198.40625 44.273438 199.511719 45.6875 200.582031 47.128906 C 201.648438 48.574219 202.683594 50.039062 203.683594 51.535156 C 204.679688 53.027344 205.640625 54.542969 206.5625 56.085938 C 207.488281 57.625 208.371094 59.1875 209.21875 60.769531 C 210.066406 62.355469 210.871094 63.957031 211.640625 65.582031 C 212.40625 67.207031 213.136719 68.847656 213.824219 70.507812 C 214.507812 72.164062 215.15625 73.839844 215.761719 75.53125 C 216.367188 77.222656 216.929688 78.925781 217.449219 80.644531 C 217.972656 82.363281 218.449219 84.09375 218.886719 85.835938 C 219.324219 87.578125 219.714844 89.332031 220.066406 91.089844 C 220.417969 92.851562 220.722656 94.621094 220.988281 96.398438 C 221.25 98.175781 221.472656 99.957031 221.648438 101.742188 C 221.824219 103.53125 221.957031 105.320312 222.042969 107.117188 C 222.132812 108.910156 222.175781 110.703125 222.175781 112.5 C 222.175781 114.296875 222.132812 116.089844 222.042969 117.882812 C 221.957031 119.679688 221.824219 121.46875 221.648438 123.257812 C 221.472656 125.042969 221.25 126.824219 220.988281 128.601562 C 220.722656 130.378906 220.417969 132.148438 220.066406 133.910156 C 219.714844 135.667969 219.324219 137.421875 218.886719 139.164062 C 218.449219 140.90625 217.972656 142.636719 217.449219 144.355469 C 216.929688 146.074219 216.367188 147.777344 215.761719 149.46875 C 215.15625 151.160156 214.507812 152.835938 213.824219 154.492188 C 213.136719 156.152344 212.40625 157.792969 211.640625 159.417969 C 210.871094 161.042969 210.066406 162.644531 209.21875 164.230469 C 208.371094 165.8125 207.488281 167.375 206.5625 168.914062 C 205.640625 170.457031 204.679688 171.972656 203.683594 173.464844 C 202.683594 174.960938 201.648438 176.425781 200.582031 177.871094 C 199.511719 179.3125 198.40625 180.726562 197.265625 182.117188 C 196.128906 183.503906 194.953125 184.863281 193.75 186.195312 C 192.542969 187.523438 191.304688 188.824219 190.035156 190.09375 C 188.765625 191.363281 187.464844 192.601562 186.132812 193.808594 C 184.804688 195.015625 183.445312 196.1875 182.054688 197.328125 C 180.667969 198.464844 179.25 199.570312 177.808594 200.640625 C 176.367188 201.710938 174.898438 202.742188 173.40625 203.742188 C 171.914062 204.738281 170.394531 205.699219 168.855469 206.625 C 167.316406 207.546875 165.753906 208.429688 164.167969 209.277344 C 162.585938 210.125 160.980469 210.933594 159.359375 211.699219 C 157.734375 212.46875 156.09375 213.195312 154.433594 213.882812 C 152.773438 214.570312 151.101562 215.214844 149.410156 215.820312 C 147.71875 216.425781 146.011719 216.988281 144.292969 217.511719 C 142.574219 218.03125 140.84375 218.511719 139.105469 218.945312 C 137.363281 219.382812 135.609375 219.777344 133.847656 220.128906 C 132.085938 220.476562 130.316406 220.785156 128.542969 221.046875 C 126.765625 221.3125 124.984375 221.53125 123.195312 221.707031 C 121.410156 221.882812 119.617188 222.015625 117.824219 222.101562 C 116.03125 222.191406 114.234375 222.234375 112.441406 222.234375 C 110.644531 222.234375 108.847656 222.191406 107.054688 222.101562 C 105.261719 222.015625 103.472656 221.882812 101.683594 221.707031 C 99.898438 221.53125 98.113281 221.3125 96.339844 221.046875 C 94.5625 220.785156 92.792969 220.476562 91.03125 220.128906 C 89.269531 219.777344 87.519531 219.382812 85.777344 218.945312 C 84.035156 218.511719 82.304688 218.03125 80.585938 217.511719 C 78.867188 216.988281 77.160156 216.425781 75.472656 215.820312 C 73.78125 215.214844 72.105469 214.570312 70.445312 213.882812 C 68.785156 213.195312 67.144531 212.46875 65.523438 211.699219 C 63.898438 210.933594 62.292969 210.125 60.710938 209.277344 C 59.128906 208.429688 57.566406 207.546875 56.023438 206.625 C 54.484375 205.699219 52.96875 204.738281 51.472656 203.742188 C 49.980469 202.742188 48.511719 201.710938 47.070312 200.640625 C 45.628906 199.570312 44.210938 198.464844 42.824219 197.328125 C 41.4375 196.1875 40.078125 195.015625 38.746094 193.808594 C 37.414062 192.601562 36.113281 191.363281 34.84375 190.09375 C 33.574219 188.824219 32.335938 187.523438 31.132812 186.195312 C 29.925781 184.863281 28.753906 183.503906 27.613281 182.117188 C 26.472656 180.726562 25.371094 179.3125 24.300781 177.871094 C 23.230469 176.425781 22.195312 174.960938 21.199219 173.464844 C 20.199219 171.972656 19.238281 170.457031 18.316406 168.914062 C 17.394531 167.375 16.507812 165.8125 15.660156 164.230469 C 14.816406 162.644531 14.007812 161.042969 13.238281 159.417969 C 12.472656 157.792969 11.746094 156.152344 11.058594 154.492188 C 10.371094 152.835938 9.722656 151.160156 9.117188 149.46875 C 8.515625 147.777344 7.949219 146.074219 7.429688 144.355469 C 6.910156 142.636719 6.429688 140.90625 5.992188 139.164062 C 5.554688 137.421875 5.164062 135.667969 4.8125 133.910156 C 4.460938 132.148438 4.15625 130.378906 3.890625 128.601562 C 3.628906 126.824219 3.410156 125.042969 3.234375 123.257812 C 3.058594 121.46875 2.925781 119.679688 2.835938 117.882812 C 2.75 116.089844 2.703125 114.296875 2.703125 112.5 C 2.703125 110.703125 2.75 108.910156 2.835938 107.117188 C 2.925781 105.320312 3.058594 103.53125 3.234375 101.742188 C 3.410156 99.957031 3.628906 98.175781 3.890625 96.398438 C 4.15625 94.621094 4.460938 92.851562 4.8125 91.089844 C 5.164062 89.332031 5.554688 87.578125 5.992188 85.835938 C 6.429688 84.09375 6.910156 82.363281 7.429688 80.644531 C 7.949219 78.925781 8.515625 77.222656 9.117188 75.53125 C 9.722656 73.839844 10.371094 72.164062 11.058594 70.507812 C 11.746094 68.847656 12.472656 67.207031 13.238281 65.582031 C 14.007812 63.957031 14.816406 62.355469 15.660156 60.769531 C 16.507812 59.1875 17.394531 57.625 18.316406 56.085938 C 19.238281 54.542969 20.199219 53.027344 21.199219 51.535156 C 22.195312 50.039062 23.230469 48.574219 24.300781 47.128906 C 25.371094 45.6875 26.472656 44.273438 27.613281 42.882812 C 28.753906 41.496094 29.925781 40.136719 31.132812 38.804688 C 32.335938 37.476562 33.574219 36.175781 34.84375 34.90625 C 36.113281 33.636719 37.414062 32.398438 38.746094 31.191406 C 40.078125 29.984375 41.4375 28.8125 42.824219 27.671875 C 44.210938 26.535156 45.628906 25.429688 47.070312 24.359375 C 48.511719 23.289062 49.980469 22.257812 51.472656 21.257812 C 52.96875 20.261719 54.484375 19.300781 56.023438 18.375 C 57.566406 17.453125 59.128906 16.570312 60.710938 15.722656 C 62.292969 14.875 63.898438 14.066406 65.523438 13.300781 C 67.144531 12.53125 68.785156 11.804688 70.445312 11.117188 C 72.105469 10.429688 73.78125 9.785156 75.472656 9.179688 C 77.160156 8.574219 78.867188 8.011719 80.585938 7.488281 C 82.304688 6.96875 84.035156 6.488281 85.777344 6.054688 C 87.519531 5.617188 89.269531 5.222656 91.03125 4.871094 C 92.792969 4.523438 94.5625 4.214844 96.339844 3.953125 C 98.113281 3.6875 99.898438 3.46875 101.683594 3.292969 C 103.472656 3.117188 105.261719 2.984375 107.054688 2.898438 C 108.847656 2.808594 110.644531 2.765625 112.441406 2.765625 L 112.441406 46.660156 C 111.363281 46.660156 110.285156 46.683594 109.210938 46.738281 C 108.132812 46.789062 107.058594 46.871094 105.988281 46.976562 C 104.914062 47.082031 103.84375 47.214844 102.777344 47.371094 C 101.714844 47.53125 100.652344 47.714844 99.59375 47.921875 C 98.539062 48.132812 97.488281 48.371094 96.441406 48.632812 C 95.398438 48.894531 94.359375 49.179688 93.328125 49.492188 C 92.296875 49.804688 91.273438 50.144531 90.257812 50.507812 C 89.242188 50.871094 88.238281 51.257812 87.242188 51.671875 C 86.246094 52.082031 85.261719 52.519531 84.289062 52.980469 C 83.316406 53.441406 82.351562 53.925781 81.402344 54.433594 C 80.453125 54.941406 79.515625 55.472656 78.589844 56.027344 C 77.667969 56.578125 76.757812 57.15625 75.859375 57.753906 C 74.964844 58.355469 74.082031 58.972656 73.21875 59.617188 C 72.351562 60.257812 71.503906 60.921875 70.671875 61.605469 C 69.835938 62.289062 69.023438 62.992188 68.222656 63.714844 C 67.425781 64.4375 66.644531 65.179688 65.882812 65.941406 C 65.121094 66.703125 64.378906 67.484375 63.65625 68.285156 C 62.929688 69.082031 62.226562 69.898438 61.542969 70.730469 C 60.859375 71.5625 60.199219 72.414062 59.554688 73.277344 C 58.914062 74.144531 58.292969 75.023438 57.695312 75.921875 C 57.097656 76.816406 56.519531 77.726562 55.964844 78.652344 C 55.410156 79.574219 54.882812 80.511719 54.375 81.460938 C 53.863281 82.414062 53.378906 83.375 52.921875 84.347656 C 52.460938 85.324219 52.023438 86.308594 51.609375 87.304688 C 51.199219 88.300781 50.808594 89.304688 50.449219 90.320312 C 50.085938 91.332031 49.746094 92.355469 49.433594 93.386719 C 49.121094 94.417969 48.832031 95.457031 48.570312 96.5 C 48.308594 97.546875 48.074219 98.597656 47.863281 99.65625 C 47.652344 100.710938 47.46875 101.773438 47.3125 102.839844 C 47.152344 103.90625 47.019531 104.972656 46.914062 106.046875 C 46.808594 107.117188 46.730469 108.191406 46.679688 109.269531 C 46.625 110.34375 46.597656 111.421875 46.597656 112.5 C 46.597656 113.578125 46.625 114.65625 46.679688 115.730469 C 46.730469 116.808594 46.808594 117.882812 46.914062 118.953125 C 47.019531 120.027344 47.152344 121.09375 47.3125 122.160156 C 47.46875 123.226562 47.652344 124.289062 47.863281 125.34375 C 48.074219 126.402344 48.308594 127.453125 48.570312 128.5 C 48.832031 129.542969 49.121094 130.582031 49.433594 131.613281 C 49.746094 132.644531 50.085938 133.667969 50.449219 134.679688 C 50.808594 135.695312 51.199219 136.699219 51.609375 137.695312 C 52.023438 138.691406 52.460938 139.675781 52.921875 140.652344 C 53.378906 141.625 53.863281 142.585938 54.375 143.539062 C 54.882812 144.488281 55.410156 145.425781 55.964844 146.347656 C 56.519531 147.273438 57.097656 148.183594 57.695312 149.078125 C 58.292969 149.976562 58.914062 150.855469 59.554688 151.722656 C 60.199219 152.585938 60.859375 153.4375 61.542969 154.269531 C 62.226562 155.101562 62.929688 155.917969 63.65625 156.714844 C 64.378906 157.515625 65.121094 158.296875 65.882812 159.058594 C 66.644531 159.820312 67.425781 160.5625 68.222656 161.285156 C 69.023438 162.007812 69.835938 162.710938 70.671875 163.394531 C 71.503906 164.078125 72.351562 164.742188 73.21875 165.382812 C 74.082031 166.027344 74.964844 166.644531 75.859375 167.246094 C 76.757812 167.84375 77.667969 168.421875 78.589844 168.972656 C 79.515625 169.527344 80.453125 170.058594 81.402344 170.566406 C 82.351562 171.074219 83.316406 171.558594 84.289062 172.019531 C 85.261719 172.480469 86.25 172.917969 87.242188 173.328125 C 88.238281 173.742188 89.242188 174.128906 90.257812 174.492188 C 91.273438 174.855469 92.296875 175.195312 93.328125 175.507812 C 94.359375 175.820312 95.398438 176.105469 96.441406 176.367188 C 97.488281 176.628906 98.539062 176.867188 99.59375 177.078125 C 100.652344 177.285156 101.714844 177.46875 102.777344 177.628906 C 103.84375 177.785156 104.914062 177.917969 105.988281 178.023438 C 107.058594 178.128906 108.132812 178.210938 109.210938 178.261719 C 110.285156 178.316406 111.363281 178.339844 112.441406 178.339844 C 113.515625 178.339844 114.59375 178.316406 115.671875 178.261719 C 116.746094 178.210938 117.820312 178.128906 118.894531 178.023438 C 119.964844 177.917969 121.035156 177.785156 122.101562 177.628906 C 123.167969 177.46875 124.226562 177.285156 125.285156 177.078125 C 126.34375 176.867188 127.394531 176.628906 128.4375 176.367188 C 129.484375 176.105469 130.523438 175.820312 131.550781 175.507812 C 132.582031 175.195312 133.605469 174.855469 134.621094 174.492188 C 135.636719 174.128906 136.640625 173.742188 137.636719 173.328125 C 138.632812 172.917969 139.617188 172.480469 140.589844 172.019531 C 141.566406 171.558594 142.527344 171.074219 143.476562 170.566406 C 144.425781 170.058594 145.363281 169.527344 146.289062 168.972656 C 147.214844 168.421875 148.125 167.84375 149.019531 167.246094 C 149.914062 166.644531 150.796875 166.027344 151.660156 165.382812 C 152.527344 164.742188 153.375 164.078125 154.210938 163.394531 C 155.042969 162.710938 155.859375 162.007812 156.65625 161.285156 C 157.453125 160.5625 158.234375 159.820312 158.996094 159.058594 C 159.757812 158.296875 160.5 157.515625 161.226562 156.714844 C 161.949219 155.917969 162.652344 155.101562 163.335938 154.269531 C 164.019531 153.4375 164.683594 152.585938 165.324219 151.722656 C 165.964844 150.855469 166.585938 149.976562 167.183594 149.078125 C 167.785156 148.183594 168.359375 147.273438 168.914062 146.347656 C 169.46875 145.425781 170 144.488281 170.507812 143.539062 C 171.015625 142.585938 171.5 141.625 171.960938 140.652344 C 172.421875 139.675781 172.855469 138.691406 173.269531 137.695312 C 173.683594 136.699219 174.070312 135.695312 174.433594 134.679688 C 174.796875 133.667969 175.132812 132.644531 175.445312 131.613281 C 175.757812 130.582031 176.046875 129.542969 176.308594 128.5 C 176.570312 127.453125 176.804688 126.402344 177.015625 125.34375 C 177.226562 124.289062 177.410156 123.226562 177.570312 122.160156 C 177.726562 121.09375 177.859375 120.027344 177.964844 118.953125 C 178.070312 117.882812 178.148438 116.808594 178.203125 115.730469 C 178.253906 114.65625 178.28125 113.578125 178.28125 112.5 C 178.28125 111.421875 178.253906 110.34375 178.203125 109.269531 C 178.148438 108.191406 178.070312 107.117188 177.964844 106.046875 C 177.859375 104.972656 177.726562 103.90625 177.570312 102.839844 C 177.410156 101.773438 177.226562 100.710938 177.015625 99.65625 C 176.804688 98.597656 176.570312 97.546875 176.308594 96.5 C 176.046875 95.457031 175.757812 94.417969 175.445312 93.386719 C 175.132812 92.355469 174.796875 91.332031 174.433594 90.320312 C 174.070312 89.304688 173.683594 88.300781 173.269531 87.304688 C 172.855469 86.308594 172.421875 85.324219 171.960938 84.347656 C 171.5 83.375 171.015625 82.414062 170.507812 81.460938 C 170 80.511719 169.46875 79.574219 168.914062 78.652344 C 168.359375 77.726562 167.785156 76.816406 167.183594 75.921875 C 166.585938 75.023438 165.964844 74.144531 165.324219 73.277344 C 164.683594 72.414062 164.019531 71.5625 163.335938 70.730469 C 162.652344 69.898438 161.949219 69.082031 161.226562 68.285156 C 160.5 67.484375 159.757812 66.703125 158.996094 65.941406 C 158.234375 65.179688 157.453125 64.4375 156.65625 63.714844 C 155.859375 62.992188 155.042969 62.289062 154.210938 61.605469 C 153.375 60.921875 152.527344 60.257812 151.660156 59.617188 C 150.796875 58.972656 149.914062 58.355469 149.019531 57.753906 C 148.125 57.15625 147.214844 56.578125 146.289062 56.027344 C 145.363281 55.472656 144.425781 54.941406 143.476562 54.433594 C 142.527344 53.925781 141.566406 53.441406 140.589844 52.980469 C 139.617188 52.519531 138.632812 52.082031 137.636719 51.671875 C 136.640625 51.257812 135.636719 50.871094 134.621094 50.507812 C 133.605469 50.144531 132.582031 49.804688 131.550781 49.492188 C 130.523438 49.179688 129.484375 48.894531 128.4375 48.632812 C 127.394531 48.371094 126.34375 48.132812 125.285156 47.921875 C 124.226562 47.714844 123.167969 47.53125 122.101562 47.371094 C 121.035156 47.214844 119.964844 47.082031 118.894531 46.976562 C 117.820312 46.871094 116.746094 46.789062 115.671875 46.738281 C 114.59375 46.683594 113.515625 46.660156 112.441406 46.660156 Z M 112.441406 2.765625 "/>
<path style=" stroke:none;fill-rule:nonzero;fill:rgb(97.648621%,74.508667%,0.779724%);fill-opacity:1;" d="M 139.875 6.25 C 141.925781 6.777344 143.957031 7.367188 145.972656 8.015625 C 147.992188 8.660156 149.988281 9.367188 151.960938 10.128906 C 153.9375 10.890625 155.890625 11.710938 157.820312 12.585938 C 159.746094 13.460938 161.648438 14.394531 163.523438 15.378906 C 165.398438 16.363281 167.242188 17.402344 169.054688 18.496094 C 170.871094 19.589844 172.648438 20.734375 174.398438 21.929688 C 176.144531 23.125 177.859375 24.371094 179.535156 25.664062 C 181.210938 26.960938 182.847656 28.300781 184.445312 29.691406 C 186.042969 31.082031 187.597656 32.515625 189.113281 33.996094 C 190.628906 35.476562 192.101562 36.996094 193.527344 38.5625 C 194.953125 40.128906 196.335938 41.734375 197.667969 43.378906 C 199.003906 45.023438 200.289062 46.703125 201.523438 48.421875 C 202.761719 50.144531 203.949219 51.894531 205.082031 53.683594 C 206.21875 55.472656 207.300781 57.292969 208.328125 59.140625 C 209.359375 60.992188 210.335938 62.871094 211.253906 64.777344 C 212.175781 66.683594 213.042969 68.617188 213.851562 70.574219 C 214.660156 72.53125 215.410156 74.511719 216.105469 76.511719 C 216.800781 78.511719 217.4375 80.53125 218.015625 82.570312 C 218.59375 84.605469 219.109375 86.660156 219.570312 88.726562 C 220.027344 90.792969 220.425781 92.871094 220.765625 94.964844 C 221.105469 97.054688 221.382812 99.152344 221.597656 101.257812 C 221.816406 103.367188 221.972656 105.476562 222.066406 107.59375 C 222.160156 109.707031 222.195312 111.824219 222.167969 113.941406 C 222.136719 116.058594 222.050781 118.175781 221.898438 120.289062 C 221.75 122.398438 221.539062 124.507812 221.265625 126.605469 C 220.992188 128.707031 220.660156 130.796875 220.265625 132.878906 C 219.875 134.960938 219.421875 137.027344 218.90625 139.082031 C 218.394531 141.136719 217.824219 143.175781 217.191406 145.195312 C 216.558594 147.21875 215.871094 149.21875 215.125 151.199219 C 214.378906 153.183594 213.574219 155.140625 212.714844 157.078125 C 211.855469 159.011719 210.9375 160.921875 209.96875 162.800781 C 208.996094 164.683594 207.972656 166.539062 206.894531 168.359375 C 205.816406 170.183594 204.6875 171.972656 203.503906 173.730469 C 202.324219 175.488281 201.089844 177.210938 199.808594 178.894531 C 198.527344 180.582031 197.199219 182.230469 195.824219 183.839844 C 194.445312 185.449219 193.023438 187.015625 191.554688 188.542969 C 190.089844 190.070312 188.578125 191.554688 187.023438 192.992188 C 185.472656 194.433594 183.878906 195.824219 182.242188 197.171875 C 180.609375 198.519531 178.9375 199.816406 177.226562 201.070312 C 175.519531 202.320312 173.773438 203.519531 171.996094 204.667969 C 170.21875 205.816406 168.40625 206.914062 166.566406 207.960938 C 164.722656 209.003906 162.851562 209.992188 160.953125 210.929688 C 159.050781 211.867188 157.128906 212.746094 155.175781 213.570312 C 153.226562 214.398438 151.253906 215.164062 149.257812 215.875 C 147.261719 216.585938 145.25 217.238281 143.214844 217.832031 C 141.183594 218.425781 139.136719 218.960938 137.070312 219.433594 C 135.007812 219.910156 132.933594 220.324219 130.84375 220.679688 C 128.757812 221.035156 126.660156 221.332031 124.554688 221.566406 C 122.449219 221.796875 120.339844 221.972656 118.226562 222.082031 C 116.109375 222.195312 113.996094 222.246094 111.878906 222.234375 C 109.757812 222.222656 107.644531 222.152344 105.53125 222.019531 C 103.417969 221.882812 101.308594 221.691406 99.207031 221.433594 C 97.105469 221.179688 95.011719 220.863281 92.925781 220.488281 C 90.84375 220.109375 88.769531 219.671875 86.710938 219.175781 C 84.652344 218.679688 82.609375 218.125 80.585938 217.511719 C 78.558594 216.894531 76.550781 216.222656 74.5625 215.492188 C 72.574219 214.761719 70.609375 213.972656 68.667969 213.128906 C 66.726562 212.285156 64.8125 211.382812 62.921875 210.425781 C 61.03125 209.472656 59.171875 208.460938 57.339844 207.398438 C 55.507812 206.335938 53.707031 205.21875 51.941406 204.050781 C 50.175781 202.882812 48.441406 201.667969 46.746094 200.398438 C 45.050781 199.132812 43.390625 197.816406 41.773438 196.453125 C 40.152344 195.085938 38.570312 193.679688 37.035156 192.222656 C 35.496094 190.769531 34 189.269531 32.546875 187.726562 C 32.054688 187.203125 31.589844 186.65625 31.148438 186.089844 C 30.710938 185.519531 30.300781 184.929688 29.917969 184.320312 C 29.539062 183.710938 29.1875 183.085938 28.867188 182.441406 C 28.546875 181.796875 28.261719 181.140625 28.007812 180.46875 C 27.75 179.796875 27.53125 179.113281 27.34375 178.417969 C 27.152344 177.726562 27 177.023438 26.882812 176.316406 C 26.761719 175.605469 26.679688 174.894531 26.628906 174.175781 C 26.582031 173.457031 26.566406 172.742188 26.589844 172.023438 C 26.609375 171.304688 26.667969 170.589844 26.757812 169.875 C 26.851562 169.164062 26.976562 168.457031 27.140625 167.753906 C 27.300781 167.054688 27.496094 166.363281 27.726562 165.683594 C 27.953125 165 28.214844 164.332031 28.511719 163.675781 C 28.804688 163.023438 29.132812 162.382812 29.492188 161.757812 C 29.847656 161.136719 30.234375 160.53125 30.652344 159.945312 C 31.070312 159.359375 31.515625 158.796875 31.988281 158.253906 C 32.460938 157.714844 32.957031 157.195312 33.480469 156.703125 C 34.003906 156.210938 34.550781 155.746094 35.121094 155.304688 C 35.6875 154.867188 36.277344 154.457031 36.886719 154.074219 C 37.496094 153.695312 38.125 153.34375 38.765625 153.023438 C 39.410156 152.703125 40.070312 152.417969 40.742188 152.160156 C 41.414062 151.90625 42.097656 151.6875 42.789062 151.496094 C 43.484375 151.308594 44.183594 151.15625 44.894531 151.039062 C 45.601562 150.917969 46.316406 150.835938 47.03125 150.785156 C 47.75 150.738281 48.46875 150.722656 49.1875 150.746094 C 49.90625 150.765625 50.621094 150.824219 51.332031 150.914062 C 52.046875 151.007812 52.753906 151.132812 53.453125 151.292969 C 54.152344 151.457031 54.84375 151.652344 55.527344 151.878906 C 56.207031 152.109375 56.875 152.371094 57.53125 152.667969 C 58.1875 152.960938 58.824219 153.289062 59.449219 153.644531 C 60.074219 154.003906 60.675781 154.390625 61.261719 154.808594 C 61.847656 155.226562 62.410156 155.671875 62.953125 156.144531 C 63.496094 156.613281 64.011719 157.113281 64.503906 157.636719 C 65.375 158.5625 66.273438 159.460938 67.195312 160.332031 C 68.121094 161.207031 69.066406 162.050781 70.039062 162.871094 C 71.011719 163.6875 72.007812 164.480469 73.023438 165.238281 C 74.042969 166 75.082031 166.730469 76.140625 167.429688 C 77.199219 168.132812 78.28125 168.800781 79.378906 169.4375 C 80.476562 170.078125 81.59375 170.683594 82.726562 171.257812 C 83.863281 171.828125 85.011719 172.371094 86.175781 172.875 C 87.34375 173.382812 88.519531 173.855469 89.714844 174.296875 C 90.90625 174.734375 92.109375 175.136719 93.328125 175.507812 C 94.542969 175.875 95.769531 176.207031 97.003906 176.507812 C 98.238281 176.804688 99.480469 177.066406 100.730469 177.292969 C 101.980469 177.519531 103.238281 177.707031 104.5 177.859375 C 105.761719 178.015625 107.027344 178.128906 108.292969 178.210938 C 109.5625 178.289062 110.832031 178.335938 112.101562 178.339844 C 113.371094 178.347656 114.644531 178.316406 115.910156 178.25 C 117.179688 178.183594 118.445312 178.078125 119.710938 177.9375 C 120.972656 177.796875 122.230469 177.621094 123.484375 177.410156 C 124.734375 177.195312 125.980469 176.945312 127.21875 176.660156 C 128.457031 176.375 129.6875 176.054688 130.90625 175.699219 C 132.125 175.34375 133.335938 174.949219 134.53125 174.523438 C 135.726562 174.097656 136.910156 173.636719 138.082031 173.144531 C 139.253906 172.648438 140.40625 172.121094 141.546875 171.558594 C 142.6875 170.996094 143.808594 170.402344 144.914062 169.773438 C 146.019531 169.148438 147.105469 168.492188 148.171875 167.800781 C 149.242188 167.109375 150.289062 166.390625 151.3125 165.640625 C 152.339844 164.890625 153.339844 164.113281 154.320312 163.304688 C 155.300781 162.496094 156.257812 161.660156 157.191406 160.796875 C 158.121094 159.933594 159.027344 159.042969 159.910156 158.125 C 160.789062 157.210938 161.644531 156.269531 162.46875 155.304688 C 163.296875 154.335938 164.09375 153.347656 164.863281 152.335938 C 165.628906 151.324219 166.371094 150.292969 167.078125 149.238281 C 167.789062 148.183594 168.464844 147.109375 169.113281 146.015625 C 169.757812 144.921875 170.375 143.8125 170.957031 142.679688 C 171.539062 141.550781 172.089844 140.40625 172.605469 139.246094 C 173.121094 138.085938 173.601562 136.910156 174.050781 135.71875 C 174.5 134.53125 174.914062 133.332031 175.289062 132.117188 C 175.667969 130.90625 176.011719 129.683594 176.320312 128.449219 C 176.628906 127.214844 176.898438 125.976562 177.136719 124.726562 C 177.371094 123.476562 177.570312 122.222656 177.734375 120.964844 C 177.898438 119.703125 178.023438 118.441406 178.117188 117.171875 C 178.207031 115.90625 178.257812 114.636719 178.277344 113.367188 C 178.292969 112.09375 178.273438 110.824219 178.214844 109.554688 C 178.160156 108.285156 178.066406 107.019531 177.933594 105.753906 C 177.804688 104.492188 177.636719 103.230469 177.433594 101.976562 C 177.230469 100.722656 176.992188 99.476562 176.71875 98.234375 C 176.441406 96.996094 176.132812 95.761719 175.785156 94.542969 C 175.4375 93.320312 175.054688 92.105469 174.640625 90.90625 C 174.222656 89.707031 173.773438 88.519531 173.285156 87.34375 C 172.800781 86.171875 172.28125 85.011719 171.730469 83.867188 C 171.175781 82.722656 170.589844 81.59375 169.972656 80.484375 C 169.355469 79.375 168.707031 78.285156 168.027344 77.210938 C 167.34375 76.136719 166.632812 75.085938 165.890625 74.054688 C 165.148438 73.023438 164.378906 72.011719 163.578125 71.027344 C 162.777344 70.039062 161.949219 69.078125 161.09375 68.136719 C 160.238281 67.199219 159.355469 66.285156 158.445312 65.398438 C 157.535156 64.507812 156.601562 63.648438 155.644531 62.816406 C 154.683594 61.980469 153.703125 61.175781 152.695312 60.398438 C 151.691406 59.621094 150.664062 58.875 149.613281 58.15625 C 148.566406 57.441406 147.496094 56.753906 146.410156 56.097656 C 145.320312 55.441406 144.214844 54.820312 143.089844 54.226562 C 141.964844 53.636719 140.824219 53.078125 139.667969 52.550781 C 138.511719 52.027344 137.339844 51.535156 136.152344 51.078125 C 134.96875 50.621094 133.769531 50.195312 132.5625 49.808594 C 131.351562 49.421875 130.128906 49.066406 128.898438 48.75 C 128.203125 48.570312 127.519531 48.355469 126.84375 48.109375 C 126.167969 47.863281 125.507812 47.582031 124.859375 47.269531 C 124.210938 46.957031 123.582031 46.617188 122.96875 46.242188 C 122.355469 45.867188 121.761719 45.464844 121.1875 45.03125 C 120.613281 44.601562 120.058594 44.140625 119.53125 43.652344 C 119 43.167969 118.496094 42.65625 118.019531 42.121094 C 117.539062 41.582031 117.089844 41.027344 116.664062 40.445312 C 116.242188 39.863281 115.847656 39.265625 115.480469 38.644531 C 115.117188 38.027344 114.78125 37.390625 114.480469 36.738281 C 114.175781 36.085938 113.90625 35.421875 113.667969 34.742188 C 113.433594 34.066406 113.230469 33.375 113.058594 32.675781 C 112.890625 31.980469 112.753906 31.273438 112.65625 30.5625 C 112.554688 29.851562 112.488281 29.136719 112.460938 28.417969 C 112.429688 27.699219 112.433594 26.980469 112.476562 26.261719 C 112.515625 25.546875 112.589844 24.832031 112.703125 24.121094 C 112.8125 23.410156 112.957031 22.707031 113.136719 22.011719 C 113.316406 21.316406 113.53125 20.632812 113.777344 19.957031 C 114.023438 19.28125 114.304688 18.621094 114.617188 17.972656 C 114.925781 17.324219 115.269531 16.695312 115.644531 16.078125 C 116.019531 15.464844 116.421875 14.871094 116.855469 14.296875 C 117.285156 13.722656 117.746094 13.171875 118.234375 12.644531 C 118.71875 12.113281 119.230469 11.609375 119.765625 11.132812 C 120.300781 10.652344 120.859375 10.199219 121.441406 9.777344 C 122.023438 9.351562 122.621094 8.957031 123.242188 8.59375 C 123.859375 8.226562 124.496094 7.894531 125.148438 7.589844 C 125.800781 7.289062 126.464844 7.019531 127.144531 6.78125 C 127.820312 6.542969 128.511719 6.339844 129.207031 6.171875 C 129.90625 6.003906 130.613281 5.867188 131.324219 5.765625 C 132.035156 5.667969 132.75 5.601562 133.46875 5.570312 C 134.1875 5.542969 134.90625 5.546875 135.621094 5.585938 C 136.339844 5.628906 137.054688 5.703125 137.765625 5.8125 C 138.476562 5.925781 139.179688 6.070312 139.875 6.25 Z M 139.875 6.25 "/>
</g>
</svg>
