<?xml version="1.0" encoding="UTF-8"?>
<svg xmlns="http://www.w3.org/2000/svg" xmlns:xlink="http://www.w3.org/1999/xlink" width="375pt" height="374.999991pt" viewBox="0 0 375 374.999991" version="1.2">
<defs>
<clipPath id="clip1">
  <path d="M 156.5625 151 L 218.8125 151 L 218.8125 226 L 156.5625 226 Z M 156.5625 151 "/>
</clipPath>
<clipPath id="clip2">
  <path d="M 171 243 L 187 243 L 187 262.5 L 171 262.5 Z M 171 243 "/>
</clipPath>
<clipPath id="clip3">
  <path d="M 189 243 L 205 243 L 205 262.5 L 189 262.5 Z M 189 243 "/>
</clipPath>
<clipPath id="clip4">
  <path d="M 207 177 L 218.8125 177 L 218.8125 209 L 207 209 Z M 207 177 "/>
</clipPath>
<clipPath id="clip5">
  <path d="M 158 112.5 L 218 112.5 L 218 137 L 158 137 Z M 158 112.5 "/>
</clipPath>
</defs>
<g id="surface1">
<path style=" stroke:none;fill-rule:nonzero;fill:rgb(0%,0%,0%);fill-opacity:1;" d="M 157.617188 192.539062 C 157.617188 196.023438 157.730469 199.816406 157.976562 203.945312 C 158.125 206.476562 160.25 208.429688 162.785156 208.429688 C 162.882812 208.429688 162.976562 208.425781 163.070312 208.421875 C 165.730469 208.269531 167.757812 206.015625 167.601562 203.386719 C 167.367188 199.425781 167.261719 195.820312 167.261719 192.539062 C 167.253906 187.488281 167.511719 183.21875 167.9375 179.617188 C 165.519531 179.417969 161.613281 178.890625 158.484375 177.472656 C 157.933594 181.742188 157.621094 186.714844 157.617188 192.539062 Z M 157.617188 192.539062 "/>
<g clip-path="url(#clip1)" clip-rule="nonzero">
<path style=" stroke:none;fill-rule:nonzero;fill:rgb(0%,0%,0%);fill-opacity:1;" d="M 175.828125 151.4375 C 175.601562 151.445312 175.351562 151.457031 175.070312 151.484375 C 172.847656 151.621094 159.785156 153.371094 156.6875 175.414062 C 156.765625 175.46875 156.851562 175.515625 156.933594 175.566406 C 161.316406 178.238281 168.8125 178.511719 170.289062 178.539062 C 170.453125 178.542969 170.546875 178.542969 170.546875 178.542969 L 171.457031 173.460938 L 171.457031 194.160156 C 171.664062 194.222656 171.949219 194.304688 172.316406 194.40625 C 173.140625 194.632812 174.34375 194.9375 175.84375 195.238281 C 177.855469 195.644531 180.40625 196.050781 183.285156 196.273438 C 183.160156 196.695312 183.089844 197.136719 183.089844 197.597656 C 183.089844 197.964844 183.136719 198.320312 183.21875 198.660156 C 177.734375 198.246094 173.425781 197.191406 171.457031 196.640625 L 171.457031 198.789062 C 170.246094 202.753906 166.988281 214.300781 167.144531 223.3125 C 167.148438 223.527344 167.152344 223.738281 167.15625 223.945312 C 169.167969 225.929688 187.121094 225.730469 187.121094 225.730469 L 187.777344 208.863281 L 188.429688 225.730469 C 188.429688 225.730469 206.386719 225.929688 208.394531 223.945312 C 208.402344 223.738281 208.402344 223.527344 208.40625 223.3125 C 208.566406 214.210938 205.242188 202.527344 204.058594 198.675781 L 204.058594 196.640625 C 202.09375 197.191406 197.785156 198.246094 192.296875 198.660156 C 192.378906 198.320312 192.429688 197.964844 192.429688 197.597656 C 192.429688 197.136719 192.355469 196.695312 192.230469 196.277344 C 197.257812 195.882812 201.273438 194.933594 203.199219 194.40625 C 203.570312 194.304688 203.851562 194.21875 204.058594 194.15625 L 204.058594 172.089844 L 205.214844 178.539062 C 205.214844 178.539062 205.324219 178.539062 205.511719 178.535156 C 207.070312 178.503906 214.484375 178.214844 218.828125 175.566406 C 218.914062 175.515625 218.996094 175.464844 219.078125 175.414062 C 215.980469 153.394531 202.941406 151.625 200.699219 151.484375 C 200.332031 151.445312 200.003906 151.433594 199.730469 151.433594 C 199.695312 151.433594 199.664062 151.433594 199.628906 151.4375 C 199.550781 151.433594 199.476562 151.425781 199.402344 151.425781 L 194.679688 151.425781 C 194.492188 152.171875 194.253906 153.003906 193.949219 153.851562 L 191.121094 154.761719 C 191.617188 153.769531 192.046875 152.636719 192.261719 151.421875 L 183.253906 151.421875 C 183.472656 152.636719 183.898438 153.769531 184.398438 154.761719 L 181.566406 153.851562 C 181.265625 153.003906 181.027344 152.171875 180.839844 151.425781 L 176.117188 151.425781 C 176.019531 151.425781 175.925781 151.433594 175.828125 151.4375 Z M 185.160156 165.632812 L 186.917969 167.890625 L 186.730469 173.832031 L 184.613281 171.957031 C 184.871094 169.78125 185.074219 167.601562 185.160156 165.632812 Z M 190.359375 165.632812 C 190.445312 167.601562 190.644531 169.78125 190.902344 171.957031 L 188.785156 173.832031 L 188.597656 167.890625 Z M 202.410156 164.449219 L 202.410156 166.515625 L 197.777344 168.007812 L 193.144531 166.515625 L 193.144531 164.449219 Z M 193.664062 167.523438 L 197.777344 168.847656 L 201.894531 167.523438 L 201.894531 173.667969 L 193.664062 173.667969 Z M 189.050781 182.28125 L 188.871094 176.550781 L 191.113281 173.671875 C 191.390625 175.808594 191.707031 177.882812 191.996094 179.667969 Z M 184.402344 173.671875 L 186.644531 176.550781 L 186.464844 182.28125 L 183.519531 179.667969 C 183.808594 177.882812 184.125 175.8125 184.402344 173.671875 Z M 173.625 167.523438 L 177.738281 168.847656 L 181.851562 167.523438 L 181.851562 173.667969 L 173.625 173.667969 Z M 182.371094 165.289062 L 182.371094 166.515625 L 177.738281 168.007812 L 173.105469 166.515625 L 173.105469 164.449219 L 182.371094 164.449219 Z M 183.28125 181.109375 L 186.375 185.089844 L 186.152344 192.238281 L 182.535156 185.238281 C 182.535156 185.238281 182.859375 183.59375 183.28125 181.109375 Z M 191.222656 197.597656 C 191.222656 199.488281 189.671875 201.019531 187.757812 201.019531 C 185.84375 201.019531 184.292969 199.488281 184.292969 197.597656 C 184.292969 195.703125 185.84375 194.171875 187.757812 194.171875 C 189.671875 194.171875 191.222656 195.703125 191.222656 197.597656 Z M 189.367188 192.238281 L 189.140625 185.089844 L 192.238281 181.109375 C 192.660156 183.59375 192.980469 185.238281 192.980469 185.238281 Z M 189.351562 157.535156 L 193.328125 155.398438 C 192.796875 156.554688 192.136719 157.640625 191.324219 158.445312 C 190.589844 159.171875 190.3125 161.144531 190.3125 163.707031 L 188.515625 165.300781 L 188.3125 158.742188 C 188.3125 158.742188 188.757812 158.300781 189.351562 157.535156 Z M 186.164062 157.535156 C 186.761719 158.300781 187.207031 158.742188 187.207031 158.742188 L 187 165.300781 L 185.203125 163.707031 C 185.207031 161.144531 184.929688 159.171875 184.191406 158.445312 C 183.378906 157.640625 182.722656 156.554688 182.191406 155.398438 Z M 186.164062 157.535156 "/>
</g>
<path style=" stroke:none;fill-rule:nonzero;fill:rgb(0%,0%,0%);fill-opacity:1;" d="M 171.457031 226.59375 L 171.457031 239.457031 L 186.363281 240.148438 L 186.363281 227.226562 C 183.960938 227.234375 176.398438 227.203125 171.457031 226.59375 Z M 171.457031 226.59375 "/>
<g clip-path="url(#clip2)" clip-rule="nonzero">
<path style=" stroke:none;fill-rule:nonzero;fill:rgb(0%,0%,0%);fill-opacity:1;" d="M 171.457031 255.109375 C 171.457031 259.175781 174.796875 262.472656 178.910156 262.472656 C 183.023438 262.472656 186.363281 259.175781 186.363281 255.109375 L 186.363281 244.394531 L 171.457031 243.703125 Z M 171.457031 255.109375 "/>
</g>
<path style=" stroke:none;fill-rule:nonzero;fill:rgb(0%,0%,0%);fill-opacity:1;" d="M 171.457031 242.285156 L 186.363281 242.976562 L 186.363281 241.566406 L 171.457031 240.875 Z M 171.457031 242.285156 "/>
<path style=" stroke:none;fill-rule:nonzero;fill:rgb(0%,0%,0%);fill-opacity:1;" d="M 189.15625 227.226562 L 189.15625 240.148438 L 204.058594 239.457031 L 204.058594 226.597656 C 199.09375 227.207031 191.511719 227.234375 189.15625 227.226562 Z M 189.15625 227.226562 "/>
<path style=" stroke:none;fill-rule:nonzero;fill:rgb(0%,0%,0%);fill-opacity:1;" d="M 189.15625 242.976562 L 204.058594 242.285156 L 204.058594 240.875 L 189.15625 241.566406 Z M 189.15625 242.976562 "/>
<g clip-path="url(#clip3)" clip-rule="nonzero">
<path style=" stroke:none;fill-rule:nonzero;fill:rgb(0%,0%,0%);fill-opacity:1;" d="M 189.15625 255.109375 C 189.15625 259.175781 192.492188 262.472656 196.605469 262.472656 C 200.722656 262.472656 204.058594 259.175781 204.058594 255.109375 L 204.058594 243.703125 L 189.15625 244.394531 Z M 189.15625 255.109375 "/>
</g>
<g clip-path="url(#clip4)" clip-rule="nonzero">
<path style=" stroke:none;fill-rule:nonzero;fill:rgb(0%,0%,0%);fill-opacity:1;" d="M 208.5 192.539062 C 208.5 195.820312 208.394531 199.429688 208.160156 203.390625 C 208.003906 206.015625 210.035156 208.269531 212.691406 208.421875 C 212.789062 208.429688 212.882812 208.429688 212.976562 208.429688 C 215.511719 208.429688 217.636719 206.476562 217.785156 203.945312 C 218.03125 199.816406 218.144531 196.023438 218.144531 192.539062 C 218.136719 186.71875 217.824219 181.746094 217.273438 177.472656 C 214.148438 178.890625 210.238281 179.417969 207.824219 179.617188 C 208.246094 183.222656 208.503906 187.492188 208.5 192.539062 Z M 208.5 192.539062 "/>
</g>
<path style=" stroke:none;fill-rule:nonzero;fill:rgb(0%,0%,0%);fill-opacity:1;" d="M 187.757812 148.03125 C 189.277344 148.03125 190.738281 147.78125 192.101562 147.324219 C 192.660156 147.140625 193.207031 146.917969 193.730469 146.664062 C 198.023438 144.578125 201.035156 140.324219 201.300781 135.34375 C 195.605469 134.949219 189.640625 134.804688 187.757812 134.804688 C 185.878906 134.804688 179.910156 134.949219 174.21875 135.34375 C 174.480469 140.324219 177.496094 144.582031 181.785156 146.664062 C 182.3125 146.917969 182.855469 147.140625 183.417969 147.324219 C 184.78125 147.78125 186.238281 148.03125 187.757812 148.03125 Z M 187.757812 148.03125 "/>
<g clip-path="url(#clip5)" clip-rule="nonzero">
<path style=" stroke:none;fill-rule:nonzero;fill:rgb(0%,0%,0%);fill-opacity:1;" d="M 163.128906 135.71875 C 167.273438 134.082031 184.324219 133.617188 187.757812 133.617188 C 191.191406 133.617188 208.242188 134.082031 212.386719 135.71875 C 214.398438 136.515625 216.074219 136.480469 216.753906 136.023438 C 217.46875 135.539062 217.066406 134.578125 214.753906 133.617188 C 210.945312 132.03125 206.28125 131.167969 201.910156 130.714844 C 201.699219 128.765625 200.886719 122.269531 199.21875 119.753906 C 197.585938 117.285156 192.492188 112.5 188.230469 112.5 C 183.972656 112.5 178.878906 117.285156 177.242188 119.753906 C 175.601562 122.230469 174.792969 128.566406 174.566406 130.621094 C 169.925781 131.046875 164.851562 131.914062 160.761719 133.617188 C 158.449219 134.578125 158.050781 135.539062 158.765625 136.023438 C 159.441406 136.480469 161.117188 136.515625 163.128906 135.71875 Z M 190.503906 125.984375 C 189.839844 126.621094 189.140625 127.042969 188.640625 127.15625 C 188.398438 127.6875 188.09375 128.011719 187.757812 128.011719 C 187.425781 128.011719 187.117188 127.6875 186.875 127.15625 C 186.375 127.042969 185.675781 126.621094 185.011719 125.984375 C 184.011719 125.027344 183.484375 123.964844 183.832031 123.613281 C 184.179688 123.257812 185.269531 123.746094 186.269531 124.703125 C 186.308594 124.738281 186.339844 124.773438 186.375 124.808594 C 186.359375 124.59375 186.351562 124.371094 186.351562 124.140625 C 186.351562 122.003906 186.980469 120.988281 187.757812 120.988281 C 188.535156 120.988281 189.164062 122.003906 189.164062 124.140625 C 189.164062 124.371094 189.15625 124.59375 189.140625 124.808594 C 189.179688 124.773438 189.210938 124.738281 189.246094 124.703125 C 190.246094 123.746094 191.339844 123.257812 191.6875 123.613281 C 192.035156 123.96875 191.503906 125.027344 190.503906 125.984375 Z M 190.503906 125.984375 "/>
</g>
</g>
</svg>
