<?xml version="1.0" encoding="UTF-8"?>
<svg xmlns="http://www.w3.org/2000/svg" xmlns:xlink="http://www.w3.org/1999/xlink" width="224.87999pt" height="225pt" viewBox="0 0 224.87999 225" version="1.2">
<defs>
<clipPath id="clip1">
  <path d="M 18 16 L 220.6875 16 L 220.6875 219 L 18 219 Z M 18 16 "/>
</clipPath>
</defs>
<g id="surface1">
<g clip-path="url(#clip1)" clip-rule="nonzero">
<path style=" stroke:none;fill-rule:nonzero;fill:rgb(53.329468%,59.999084%,65.098572%);fill-opacity:1;" d="M 210.289062 53.625 L 194.027344 69.894531 C 194.027344 69.894531 183.179688 75.316406 172.335938 64.464844 C 161.488281 53.625 166.90625 42.773438 166.90625 42.773438 L 183.179688 26.503906 C 188.605469 21.082031 182.085938 16.113281 177.191406 16.113281 C 153.164062 16.113281 133.691406 35.585938 133.691406 59.609375 C 133.691406 62.984375 134.117188 66.257812 134.84375 69.414062 L 98.074219 106.183594 L 130.605469 138.714844 L 167.375 101.953125 C 170.539062 102.675781 173.804688 103.105469 177.1875 103.105469 C 201.210938 103.105469 220.683594 83.628906 220.683594 59.609375 C 220.6875 54.683594 215.710938 48.203125 210.289062 53.625 Z M 97.433594 107.242188 L 25.132812 179.535156 C 16.265625 188.410156 16.265625 202.792969 25.132812 211.667969 C 34.011719 220.535156 48.390625 220.535156 57.265625 211.667969 L 129.550781 139.375 Z M 41.339844 204.957031 C 36.480469 204.957031 32.546875 201.019531 32.546875 196.167969 C 32.546875 191.316406 36.488281 187.371094 41.339844 187.371094 C 46.195312 187.371094 50.128906 191.308594 50.128906 196.167969 C 50.128906 201.019531 46.195312 204.957031 41.339844 204.957031 Z M 41.339844 204.957031 "/>
</g>
<path style=" stroke:none;fill-rule:nonzero;fill:rgb(95.689392%,56.469727%,4.708862%);fill-opacity:1;" d="M 190.023438 213.507812 C 196.9375 220.421875 207.949219 220.75 214.464844 214.222656 C 220.992188 207.699219 220.664062 196.695312 213.75 189.78125 L 75.753906 51.785156 C 68.832031 44.863281 57.835938 44.542969 51.308594 51.066406 C 44.785156 57.589844 45.109375 68.59375 52.027344 75.511719 Z M 190.023438 213.507812 "/>
<path style=" stroke:none;fill-rule:nonzero;fill:rgb(39.99939%,45.878601%,49.798584%);fill-opacity:1;" d="M 134.351562 21.410156 C 134.351562 21.410156 98.761719 3.617188 69.105469 33.273438 L 27.582031 74.792969 C 27.582031 74.792969 21.652344 68.863281 15.71875 74.792969 L 9.789062 80.722656 C 9.789062 80.722656 3.859375 86.65625 9.789062 92.585938 L 33.515625 116.3125 C 33.515625 116.3125 39.445312 122.246094 45.378906 116.3125 L 51.308594 110.382812 C 51.308594 110.382812 57.242188 104.449219 51.308594 98.519531 L 50.847656 98.054688 C 55.414062 93.648438 62.253906 89.160156 69.105469 92.585938 L 92.828125 68.863281 C 92.828125 68.863281 86.898438 51.066406 98.761719 39.203125 C 110.625 27.339844 116.554688 27.339844 128.417969 27.339844 C 140.28125 27.339844 134.351562 21.410156 134.351562 21.410156 Z M 134.351562 21.410156 "/>
</g>
</svg>
