<?xml version="1.0" encoding="UTF-8"?>
<svg xmlns="http://www.w3.org/2000/svg" xmlns:xlink="http://www.w3.org/1999/xlink" width="224.87999pt" height="225pt" viewBox="0 0 224.87999 225" version="1.2">
<defs>
<clipPath id="clip1">
  <path d="M 13.128906 191 L 208.023438 191 L 208.023438 211.519531 L 13.128906 211.519531 Z M 13.128906 191 "/>
</clipPath>
</defs>
<g id="surface1">
<g clip-path="url(#clip1)" clip-rule="nonzero">
<path style=" stroke:none;fill-rule:nonzero;fill:rgb(0%,0%,0%);fill-opacity:1;" d="M 23.285156 191.222656 C 17.679688 191.222656 13.128906 195.757812 13.128906 201.363281 C 13.128906 206.96875 17.679688 211.519531 23.285156 211.519531 L 197.882812 211.519531 C 203.492188 211.519531 208.042969 206.96875 208.042969 201.363281 C 208.042969 195.757812 203.492188 191.222656 197.882812 191.222656 L 23.285156 191.222656 "/>
</g>
<path style=" stroke:none;fill-rule:nonzero;fill:rgb(0%,0%,0%);fill-opacity:1;" d="M 135.421875 86.386719 L 162.101562 86.386719 C 163.089844 86.386719 163.886719 85.574219 163.886719 84.585938 C 163.886719 84.1875 163.746094 83.808594 163.503906 83.480469 L 111.976562 18.316406 C 111.371094 17.539062 110.246094 17.417969 109.46875 18.023438 C 109.363281 18.109375 109.261719 18.214844 109.175781 18.316406 L 57.648438 83.480469 C 57.042969 84.257812 57.179688 85.382812 57.941406 85.988281 C 58.269531 86.246094 58.652344 86.386719 59.050781 86.386719 L 85.746094 86.386719 C 86.734375 86.386719 87.527344 87.183594 87.527344 88.167969 L 87.527344 170.199219 C 87.527344 171.1875 88.324219 172 89.3125 172 L 131.839844 172 C 132.828125 172 133.640625 171.1875 133.640625 170.199219 L 133.640625 88.167969 C 133.640625 87.183594 134.4375 86.386719 135.421875 86.386719 "/>
</g>
</svg>
