<?xml version="1.0" encoding="UTF-8"?>
<svg xmlns="http://www.w3.org/2000/svg" xmlns:xlink="http://www.w3.org/1999/xlink" width="224.87999pt" height="225pt" viewBox="0 0 224.87999 225" version="1.2">
<defs>
<clipPath id="clip1">
  <path d="M 29.164062 123 L 208.320312 123 L 208.320312 173.21875 L 29.164062 173.21875 Z M 29.164062 123 "/>
</clipPath>
<clipPath id="clip2">
  <path d="M 79 22.546875 L 159 22.546875 L 159 131 L 79 131 Z M 79 22.546875 "/>
</clipPath>
</defs>
<g id="surface1">
<g clip-path="url(#clip1)" clip-rule="nonzero">
<path style=" stroke:none;fill-rule:nonzero;fill:rgb(87.449646%,10.5896%,19.219971%);fill-opacity:1;" d="M 204.527344 123.113281 C 202.550781 123.113281 200.953125 124.714844 200.953125 126.691406 L 200.953125 166.058594 L 36.53125 166.058594 L 36.53125 126.691406 C 36.53125 124.714844 34.929688 123.113281 32.957031 123.113281 C 30.984375 123.113281 29.382812 124.714844 29.382812 126.691406 L 29.382812 169.640625 C 29.382812 171.617188 30.984375 173.21875 32.957031 173.21875 L 204.527344 173.21875 C 206.503906 173.21875 208.101562 171.617188 208.101562 169.640625 L 208.101562 126.691406 C 208.101562 124.714844 206.503906 123.113281 204.527344 123.113281 Z M 204.527344 123.113281 "/>
</g>
<g clip-path="url(#clip2)" clip-rule="nonzero">
<path style=" stroke:none;fill-rule:nonzero;fill:rgb(87.449646%,10.5896%,19.219971%);fill-opacity:1;" d="M 85.523438 64.804688 L 115.167969 35.125 L 115.167969 126.691406 C 115.167969 128.671875 116.769531 130.269531 118.742188 130.269531 C 120.714844 130.269531 122.316406 128.671875 122.316406 126.691406 L 122.316406 35.125 L 151.957031 64.804688 C 152.65625 65.5 153.570312 65.851562 154.484375 65.851562 C 155.402344 65.851562 156.316406 65.5 157.011719 64.804688 C 158.410156 63.402344 158.410156 61.140625 157.011719 59.742188 L 121.269531 23.953125 C 119.871094 22.554688 117.613281 22.554688 116.214844 23.953125 L 80.472656 59.742188 C 79.074219 61.140625 79.074219 63.402344 80.472656 64.804688 C 81.867188 66.203125 84.128906 66.203125 85.523438 64.804688 Z M 85.523438 64.804688 "/>
</g>
</g>
</svg>
